<?xml version="1.0" standalone="no"?>
<!DOCTYPE svg PUBLIC "-//W3C//DTD SVG 1.1//EN" "http://www.w3.org/Graphics/SVG/1.1/DTD/svg11.dtd" >
<svg xmlns="http://www.w3.org/2000/svg" xmlns:xlink="http://www.w3.org/1999/xlink" version="1.1">
<metadata>
Created by FontForge 20161116 at Thu Nov  6 16:53:24 2014
 By Jimmy Warting
I did not design this font completely, is loosely based on Lariata Typecafe. Traced from the 1993 edition of Novum Press book Schreibschriften/Script Types, compiled by Michael Rau &#38; Rosemarie Kloos-Rau. I did add the punctuation marks for the book only had letters and numbers.
</metadata>
<defs>
<font id="Angelface" horiz-adv-x="364" >
  <font-face 
    font-family="Angelface"
    font-weight="400"
    font-stretch="normal"
    units-per-em="1000"
    panose-1="0 0 0 0 0 0 0 0 0 0"
    ascent="581"
    descent="-419"
    x-height="218"
    cap-height="607"
    bbox="-297.576 -383.695 981.942 799.984"
    underline-thickness="50"
    underline-position="-100"
    unicode-range="U+0020-20AC"
  />
<missing-glyph horiz-adv-x="201" 
 />
    <glyph glyph-name=".notdef" horiz-adv-x="201" 
 />
    <glyph glyph-name="Yacute" unicode="&#xdd;" horiz-adv-x="387" 
d="M139 -32c-78 -32 -162 -71 -240 -123c-155 -102 -133 -205 -19 -134c72 44 175 153 259 257zM191 553c59 22 94 -17 56 -80c-46 -76 -134 -170 -183 -271c-35 -73 -2 -199 121 -100c74 59 141 163 207 260c68 100 105 155 105 155c6 8 29 -14 20 -29
c-21 -36 -145 -257 -294 -463c54 16 102 29 136 38c5 1 14 -18 0 -22c-45 -13 -101 -30 -163 -52c-114 -151 -238 -288 -341 -327c-80 -30 -115 22 -105 66c30 138 247 228 423 283c36 46 67 89 87 123c-150 -195 -301 -74 -225 92c43 93 109 170 158 230c31 38 45 75 3 59
c-72 -26 -119 -72 -134 -86c-10 -10 -13 27 1 40c14 14 75 64 128 84zM378 570c3 3 34 38 41 43c13 12 13 -24 13 -24c-9 -9 -45 -41 -49 -38c-5 4 -8 16 -5 19z" />
    <glyph glyph-name="yacute" unicode="&#xfd;" horiz-adv-x="249" 
d="M122 -2c17 37 31 67 32 71c-84 -98 -151 -96 -148 -14c3 78 76 149 93 159s37 -6 33 -10c-4 -3 -85 -63 -93 -148c-3 -32 25 -33 60 -3c55 46 137 160 143 165c6 7 29 -9 23 -17c-30 -45 -61 -103 -91 -164c35 26 66 50 92 74c12 10 10 -21 6 -25
c-30 -30 -76 -64 -124 -101c-52 -106 -103 -209 -148 -257c-49 -52 -104 -78 -132 -52c-28 25 -4 95 61 158c67 65 133 118 193 164zM-14 -152c-99 -103 -109 -147 -96 -157c17 -14 77 23 166 173c11 17 26 49 42 83c-41 -33 -81 -66 -112 -99zM184 272c3 4 35 38 41 44
c13 12 13 -24 13 -24c-9 -9 -45 -42 -48 -38c-5 4 -8 16 -6 18z" />
    <glyph glyph-name="Zcaron" unicode="&#x17d;" horiz-adv-x="425" 
d="M288 26c-36 -81 -126 -219 -338 -318c-128 -59 -141 38 23 145c122 80 236 137 315 173zM231 168c-98 -81 -179 -110 -184 -83c-2 10 7 26 31 43c40 28 103 45 153 40zM70 151c-51 -33 -67 -70 -56 -90c31 -57 147 12 251 100c34 -12 53 -40 39 -90c-1 -4 -2 -8 -4 -13
c-156 -63 -445 -194 -483 -322c-12 -42 11 -97 91 -79c189 43 355 258 411 360c6 10 11 20 15 30c29 13 49 21 57 25c14 7 5 24 0 22c-9 -3 -26 -10 -48 -19c14 57 -7 95 -46 114c66 60 124 125 145 163c115 208 -72 197 -184 137c-117 -62 -188 -131 -219 -170
c-7 -9 4 -32 17 -21c12 12 83 93 209 161c145 78 213 -2 130 -115c-42 -57 -87 -106 -129 -145c-55 11 -129 -5 -196 -48zM512 611c-8 -6 -67 -62 -73 -36c-1 5 -7 37 -8 40c-1 8 22 23 24 5c2 -8 5 -16 7 -22c8 6 30 22 40 29c5 5 14 -11 10 -16z" />
    <glyph glyph-name="zcaron" unicode="&#x17e;" horiz-adv-x="248" 
d="M103 -46c-15 -46 -47 -99 -87 -143c-60 -65 -150 -127 -166 -116c-11 8 -10 40 53 101c59 57 131 108 200 158zM-72 -137c-91 -70 -142 -153 -107 -187c35 -35 122 25 185 83c52 48 131 155 141 227c47 33 90 66 123 100c5 5 7 35 -5 25c-41 -37 -79 -65 -119 -93
c-6 21 -22 34 -42 40c32 21 63 45 89 70c33 34 33 108 -47 95c-82 -14 -133 -60 -140 -66c-8 -6 2 -40 13 -30c6 6 68 59 124 67c33 4 37 -21 30 -34c-12 -24 -74 -68 -123 -99c-26 -3 -51 -11 -67 -18c-32 -15 -41 -49 9 -37c26 7 56 19 86 36c26 -5 33 -24 32 -48
c-51 -35 -108 -74 -182 -131zM262 310c-8 -6 -67 -62 -72 -36c-2 5 -8 36 -8 40c-2 8 21 23 24 5c1 -8 4 -16 6 -22c8 6 30 22 40 29c6 5 15 -12 10 -16z" />
    <glyph glyph-name="multiply" unicode="&#xd7;" horiz-adv-x="268" 
d="M83 79c-4 5 -4 11 3 18c14 12 4 2 50 45c-16 25 -30 47 -34 53c-6 6 1 13 7 16s15 4 20 -2c5 -7 17 -25 30 -44c41 39 52 50 56 53c6 5 12 1 14 -4s2 -13 -5 -21c-1 -2 -25 -24 -51 -49c13 -20 26 -39 32 -49c4 -7 0 -16 -7 -19s-16 -1 -24 9c-6 8 -15 21 -24 36
c-23 -21 -43 -40 -48 -44c-6 -6 -15 -2 -19 2z" />
    <glyph glyph-name="space" unicode=" " horiz-adv-x="201" 
 />
    <glyph glyph-name="exclam" unicode="!" horiz-adv-x="231" 
d="M102 57c-3 -20 -27 -10 -23 5c24 83 153 557 165 593c12 35 50 -3 44 -20c-31 -95 -149 -444 -186 -578zM84 -1c22 -12 1 -52 -28 -43c-15 4 -16 19 -11 31c6 15 25 20 39 12z" />
    <glyph glyph-name="quotedbl" unicode="&#x22;" horiz-adv-x="112" 
d="M48 458c-1 -5 -7 -8 -12 -9s-12 1 -12 7c1 10 3 50 5 57c2 9 20 5 21 -1c0 0 -1 -46 -2 -54zM87 512c0 -4 -4 -52 -4 -60c0 -6 -21 -6 -22 1c-1 6 4 51 5 59c1 10 21 5 21 0z" />
    <glyph glyph-name="numbersign" unicode="#" horiz-adv-x="233" 
d="M134 253l6 39l-39 -1c-3 -14 -5 -27 -8 -40c13 1 27 1 41 2zM179 430c12 0 15 -7 14 -10c-8 -37 -15 -71 -21 -103c19 1 34 1 36 0c10 -3 9 -25 -4 -24c-5 1 -19 1 -37 0c-3 -13 -5 -26 -8 -39c17 1 31 0 35 -1c11 -3 9 -25 -4 -24c-5 1 -18 1 -35 0
c-7 -35 -13 -68 -18 -100c-1 -6 -23 -1 -21 9c3 29 8 58 13 90l-40 -1c-6 -35 -11 -67 -16 -98c-1 -6 -9 -8 -14 -7c-6 1 -9 6 -8 16c4 27 8 56 13 88c-14 -1 -24 -1 -27 -1c-8 0 -14 19 -10 19c4 1 20 3 41 5l7 41c-13 -1 -22 -1 -24 -1c-9 0 -14 22 -11 23c1 0 17 1 39 2
c6 32 12 67 19 108c1 6 32 4 30 -2c-9 -39 -16 -73 -23 -105c13 0 27 1 40 1c5 32 11 67 18 106c0 3 6 8 16 8z" />
    <glyph glyph-name="dollar" unicode="$" horiz-adv-x="470" 
d="M194 37c69 18 129 66 120 129c-4 30 -33 48 -67 64c-19 -71 -38 -140 -53 -193zM267 436c-32 -13 -64 -30 -92 -52c-46 -37 -16 -73 17 -94c9 -6 21 -12 36 -18c14 57 28 114 39 164zM367 462c-20 -2 -42 -6 -66 -14c-12 -55 -29 -121 -46 -187c36 -16 74 -35 88 -68
c33 -78 -56 -168 -158 -190l-15 -55c-4 -12 -27 -3 -25 10c2 9 6 23 10 41c-40 -4 -81 5 -116 29c-16 21 3 24 13 17c18 -10 58 -18 85 -17c9 0 18 1 27 2c14 56 35 132 56 212c-49 20 -98 42 -103 92c-7 64 92 110 157 133c7 34 12 65 15 89c2 12 35 13 33 -2
c-3 -20 -8 -46 -14 -77c34 10 84 16 116 7c12 -12 1 -26 -11 -24c-11 4 -27 4 -46 2z" />
    <glyph glyph-name="percent" unicode="%" horiz-adv-x="352" 
d="M144 349c8 -3 15 -10 15 -23v-3c63 21 117 110 126 123l1 2c7 15 38 4 32 -10c-68 -139 -205 -416 -246 -488c-2 -4 -30 -5 -21 15c25 50 109 221 178 364c-27 -22 -55 -37 -80 -41c-8 -16 -20 -34 -38 -52c-37 -37 -79 -21 -77 18c1 29 26 59 49 77c10 32 51 21 61 18z
M88 306c-10 -10 -19 -24 -25 -41c-8 -20 1 -48 43 1c7 8 12 15 16 22c-12 2 -24 8 -34 18zM127 329c-4 0 -11 -2 -18 -6c8 -3 16 -4 24 -4c-1 7 -5 10 -6 10zM279 137c-5 0 -17 -8 -23 -15c0 -1 -1 -4 -4 -5s-26 -15 -38 -44c-6 -17 4 -45 43 1c44 51 23 63 22 63zM269 157
c8 3 41 7 42 -23c0 -20 -14 -57 -52 -90c-40 -35 -75 -12 -73 18c1 34 42 68 54 74c3 8 19 18 29 21z" />
    <glyph glyph-name="ampersand" unicode="&#x26;" horiz-adv-x="355" 
d="M182 165c-12 45 -16 90 -17 133c-46 -50 -87 -105 -108 -171c-44 -139 90 -133 177 -82c-20 29 -34 61 -45 95c-15 -7 -29 -15 -40 -25c-5 -4 -26 4 -14 20c8 11 25 22 47 30zM196 367c47 45 88 82 106 105c68 88 -40 106 -81 9c-9 -21 -20 -63 -25 -114zM256 60
c27 20 45 45 46 70c1 24 -43 30 -87 18c9 -31 23 -61 41 -88zM297 10c13 -12 -11 -23 -15 -19c-12 10 -22 21 -31 32c-112 -64 -284 -67 -234 103c21 73 86 148 149 212c3 65 15 118 24 142c49 133 248 120 128 -26c-34 -41 -80 -82 -125 -127c-1 -48 2 -101 15 -153
c60 17 134 14 129 -44c-2 -35 -28 -67 -64 -93c7 -10 15 -19 24 -27z" />
    <glyph glyph-name="quotesingle" unicode="'" horiz-adv-x="71" 
d="M27 415c1 5 7 8 12 9s11 -1 11 -7c0 -10 -2 -50 -4 -58s-21 -4 -22 2c0 0 2 46 3 54z" />
    <glyph glyph-name="parenleft" unicode="(" horiz-adv-x="112" 
d="M269 799c4 4 38 -5 29 -18c-195 -274 -312 -620 -252 -963c1 -9 -29 -13 -32 -1c-83 350 98 792 255 982z" />
    <glyph glyph-name="parenright" unicode=")" horiz-adv-x="230" 
d="M-42 -189c-3 -5 -37 5 -28 18c195 274 312 619 252 963c-2 8 29 13 32 0c83 -349 -98 -791 -256 -981z" />
    <glyph glyph-name="asterisk" unicode="*" horiz-adv-x="139" 
d="M44 450l8 16c-14 0 -26 1 -29 0c-9 0 -10 9 -9 13s5 10 12 10h24l-13 22c-4 7 0 12 5 14s13 2 16 -4l12 -18l13 26c4 6 11 3 14 0s5 -9 3 -15c0 -1 -5 -12 -12 -25c11 0 20 0 26 -1c7 0 12 -6 10 -12c-1 -6 -8 -10 -16 -10c-4 -1 -9 -1 -15 -1c4 -6 7 -11 9 -15
c4 -6 1 -13 -5 -15s-13 0 -18 7c-2 3 -5 8 -8 13c-6 -12 -11 -21 -12 -24c-4 -6 -12 -4 -16 -2c-5 2 -7 8 -4 14c3 4 3 5 5 7z" />
    <glyph glyph-name="plus" unicode="+" horiz-adv-x="268" 
d="M135 61c-6 2 -11 7 -8 16c5 16 2 4 15 55c-30 1 -56 1 -63 1c-9 0 -11 8 -10 14c2 7 7 14 15 14h65c13 54 16 69 18 73c2 7 9 7 14 4c6 -3 10 -10 9 -20c0 -1 -6 -27 -13 -57c23 0 44 0 56 -1c9 -1 14 -8 12 -15s-10 -13 -23 -14c-11 0 -31 0 -52 1
c-8 -30 -14 -57 -17 -64c-2 -7 -12 -8 -18 -7z" />
    <glyph glyph-name="comma" unicode="," horiz-adv-x="67" 
d="M32 36c10 13 20 -12 15 -20c-12 -19 -25 -39 -44 -46c-4 -2 -25 14 -13 26c14 9 28 22 42 40z" />
    <glyph glyph-name="hyphen" unicode="-" horiz-adv-x="274" 
d="M243 153c10 -3 8 -25 -5 -23c-16 1 -143 -5 -152 -5s-14 19 -11 20c3 0 37 7 67 9c17 1 92 2 101 -1z" />
    <glyph glyph-name="period" unicode="." horiz-adv-x="67" 
d="M47 38c19 -13 -1 -51 -26 -43c-12 4 -12 20 -7 31c7 12 21 20 33 12z" />
    <glyph glyph-name="slash" unicode="/" horiz-adv-x="233" 
d="M323 617c-69 -139 -288 -562 -328 -634c-7 -11 -31 -5 -22 15c32 65 250 485 318 629c5 12 38 3 32 -10z" />
    <glyph glyph-name="zero" unicode="0" horiz-adv-x="350" 
d="M163 9c-79 -56 -159 -25 -157 75c2 112 105 275 202 333c77 46 145 18 132 -77c-13 -93 -97 -274 -177 -331zM308 333c12 76 -28 95 -90 51c-56 -39 -113 -120 -132 -153c-111 -195 23 -332 157 -68c40 78 58 133 65 170z" />
    <glyph glyph-name="one" unicode="1" horiz-adv-x="347" 
d="M248 429c40 4 61 27 65 28c13 4 35 -13 21 -27c-108 -153 -186 -274 -288 -447c-7 -13 -30 18 -25 26c69 123 173 291 246 391c3 4 -6 6 -26 8c-4 1 0 20 7 21z" />
    <glyph glyph-name="two" unicode="2" horiz-adv-x="510" 
d="M156 67c-29 11 -57 13 -83 -3c-68 -42 -45 -68 12 -42c19 9 44 25 71 45zM173 304c40 76 164 175 256 178c75 2 107 -82 -20 -221c-49 -53 -123 -126 -196 -184c37 -20 69 -42 95 -41c56 3 90 45 100 55c8 7 18 -8 12 -13c-1 -2 -49 -69 -112 -75c-36 -3 -80 29 -124 51
c-47 -35 -92 -62 -129 -72c-51 -13 -52 45 -41 67c24 49 76 57 94 59c27 2 53 -6 78 -17c90 73 196 179 231 230c99 141 6 162 -84 102c-86 -58 -134 -138 -141 -146c-9 -11 -22 22 -19 27z" />
    <glyph glyph-name="three" unicode="3" horiz-adv-x="434" 
d="M280 265c-16 8 -36 12 -60 6c-64 -15 -52 -54 3 -36c18 5 38 16 57 30zM198 386c17 29 87 87 161 87c27 0 111 -22 42 -125c-15 -22 -45 -53 -79 -81c18 -16 31 -40 32 -76c4 -70 -113 -213 -252 -213c-62 0 -98 47 -98 102c0 35 15 80 41 101c10 7 26 -5 20 -12
c-35 -40 -61 -156 34 -161c80 -3 217 85 223 182c2 21 -6 44 -23 61c-28 -20 -57 -35 -84 -40c-75 -15 -89 59 -18 82c16 6 64 10 104 -11c49 42 91 99 91 127c0 31 -16 39 -50 36c-39 -3 -105 -55 -129 -87c-9 -11 -25 10 -15 28z" />
    <glyph glyph-name="four" unicode="4" horiz-adv-x="450" 
d="M251 162c63 94 136 198 143 207c14 16 4 20 -8 13c-144 -77 -239 -148 -276 -185c-27 -26 -56 -57 -38 -53c63 12 127 16 179 18zM377 132c-38 1 -73 2 -104 1c-32 -46 -73 -106 -82 -124c-2 -3 -1 -17 -10 -21c-13 -8 -32 7 -24 25c6 14 37 63 74 119
c-112 -3 -173 -17 -198 -24c-22 -7 -26 34 -13 47c119 123 249 206 414 290c34 17 51 2 42 -13c-10 -14 -145 -214 -166 -245l-17 -24c31 0 52 -1 59 -2c32 -1 35 -30 25 -29z" />
    <glyph glyph-name="five" unicode="5" horiz-adv-x="440" 
d="M201 309c-26 -41 -20 -38 2 -30c63 24 122 4 124 -47c1 -63 -32 -136 -103 -191c-49 -39 -130 -86 -183 -43c-52 43 -34 125 -28 133c16 20 40 3 31 -13c-7 -13 -12 -64 1 -82c71 -92 294 131 242 209c-24 36 -117 6 -145 -24c-4 -4 -30 16 -18 37c32 58 118 179 137 183
c50 9 100 14 153 17c13 1 24 -25 13 -25c-6 0 -99 -7 -137 -13c-14 -1 -15 -2 -22 -11c-34 -46 -52 -78 -67 -100z" />
    <glyph glyph-name="six" unicode="6" horiz-adv-x="413" 
d="M83 205c-4 -7 -7 -14 -10 -21c-77 -168 6 -214 101 -130c96 84 106 188 79 214c-24 23 -104 17 -170 -63zM379 450c-61 5 -173 -72 -250 -173c43 28 103 46 147 17c68 -44 6 -205 -97 -280c-112 -82 -177 5 -173 82c9 166 232 368 349 373c24 1 59 -4 50 -18
c-7 -11 -20 -1 -26 -1z" />
    <glyph glyph-name="seven" unicode="7" horiz-adv-x="389" 
d="M164 429c36 8 179 17 198 18c32 2 39 -13 3 -54c-118 -133 -221 -263 -332 -402c-15 -14 -30 22 -20 37c95 130 216 263 314 364c19 20 13 21 -11 20c-60 -2 -129 -13 -156 -18c-13 -3 -6 33 4 35z" />
    <glyph glyph-name="eight" unicode="8" horiz-adv-x="392" 
d="M338 376c1 23 -7 57 -41 57c-40 0 -90 -49 -94 -98c-2 -30 8 -53 21 -74c68 29 112 73 114 115zM206 228c-60 -19 -120 -36 -156 -102c-26 -48 -2 -113 54 -117c44 -3 190 56 102 219zM344 313c-36 -43 -71 -61 -105 -73c22 -32 45 -65 36 -120
c-12 -71 -77 -143 -176 -136c-79 6 -117 75 -86 149c35 83 105 91 180 117c-15 24 -31 50 -27 85c25 201 315 138 178 -22z" />
    <glyph glyph-name="nine" unicode="9" horiz-adv-x="392" 
d="M311 277c3 6 6 12 9 17c73 143 -42 186 -154 69c-42 -44 -66 -113 -35 -145c39 -42 127 -1 180 59zM28 11c46 9 149 70 237 193c-50 -42 -118 -37 -144 -18c-48 33 -61 109 16 191c113 122 207 79 226 50c46 -74 -39 -221 -149 -330c-102 -101 -165 -112 -197 -110
c-22 1 -4 22 11 24z" />
    <glyph glyph-name="colon" unicode=":" horiz-adv-x="67" 
d="M47 38c19 -13 -1 -51 -26 -43c-12 4 -12 20 -7 31c7 12 21 20 33 12zM57 171c19 -13 -1 -51 -26 -43c-12 4 -12 20 -7 31c7 12 21 19 33 12z" />
    <glyph glyph-name="semicolon" unicode=";" horiz-adv-x="67" 
d="M32 36c10 13 20 -12 15 -20c-12 -19 -25 -39 -44 -46c-4 -2 -25 14 -13 26c14 9 28 22 42 40zM46 171c19 -13 -1 -51 -26 -43c-12 4 -12 20 -6 31c6 12 20 19 32 12z" />
    <glyph glyph-name="less" unicode="&#x3c;" horiz-adv-x="218" 
d="M189 70c15 -4 5 -30 -19 -25c-22 5 -109 25 -120 27c-35 8 -52 18 -29 29c71 33 91 45 172 82c5 2 6 -28 -4 -33c-22 -11 -65 -31 -115 -54c0 0 47 -12 115 -26z" />
    <glyph glyph-name="equal" unicode="=" horiz-adv-x="260" 
d="M217 189c11 -3 9 -25 -4 -24c-16 2 -127 -5 -136 -4c-9 0 -8 22 -5 22c4 1 136 8 145 6zM217 125c10 -3 8 -25 -5 -24c-16 2 -127 -5 -136 -5c-8 1 -14 19 -10 20c3 1 38 7 68 9c17 1 74 2 83 0z" />
    <glyph glyph-name="greater" unicode="&#x3e;" horiz-adv-x="218" 
d="M25 159c-15 3 -5 29 18 24s109 -25 120 -27c35 -8 53 -18 30 -29c-72 -33 -92 -45 -172 -82c-5 -2 -7 28 3 33c23 11 65 31 116 54c0 0 -48 12 -115 27z" />
    <glyph glyph-name="question" unicode="?" horiz-adv-x="357" 
d="M100 6c13 -3 22 -14 21 -28c-2 -16 -19 -26 -34 -23c-12 3 -19 11 -20 23c-2 17 16 31 33 28zM144 541c-12 -12 -38 8 -24 24c156 177 297 62 266 -61c-37 -151 -251 -240 -282 -451c-2 -12 -22 -8 -20 5c27 238 248 311 269 451c15 103 -86 160 -209 32z" />
    <glyph glyph-name="at" unicode="@" horiz-adv-x="556" 
d="M341 268c-12 -22 -21 -78 15 -78c42 0 107 73 121 149c12 65 -15 125 -118 125c-116 0 -234 -85 -270 -199c-33 -105 15 -193 147 -193c94 0 199 48 254 141c7 11 23 -19 15 -32c-63 -101 -182 -139 -277 -139c-157 0 -211 105 -172 231c39 125 185 218 310 218
c133 0 161 -75 145 -153c-17 -88 -95 -181 -162 -177c-30 2 -55 35 -47 61c-72 -101 -159 -63 -114 36c50 109 198 121 161 44c-13 -20 -19 -14 -23 -10c30 64 -70 31 -104 -29c-33 -58 0 -120 73 -15c19 27 43 66 69 104c5 6 29 -10 21 -20c-20 -26 -40 -58 -44 -64z" />
    <glyph glyph-name="A" unicode="A" horiz-adv-x="778" 
d="M515 268c51 0 104 -2 146 -4c39 62 83 120 114 160c62 81 49 109 38 109c-57 0 -185 -140 -298 -265zM828 558c34 -4 34 -62 0 -113c-24 -37 -80 -114 -128 -184c15 -1 26 -2 30 -3c10 -3 -3 -19 -27 -17l-17 1c-14 -21 -27 -40 -38 -57c-51 -80 -64 -162 -38 -169
c27 -8 84 24 108 55c13 16 23 -6 18 -11c-121 -136 -181 -57 -170 5c10 53 43 117 82 179c-50 3 -98 2 -159 -5c-45 -50 -86 -95 -118 -126c-102 -99 -173 -117 -218 -119c-78 -4 -127 65 -141 100c-11 30 21 40 25 29c36 -87 129 -205 410 110c-19 -3 -38 -6 -60 -10
c-15 -3 3 37 25 39c18 3 41 4 65 5l3 4c212 250 291 295 348 287z" />
    <glyph glyph-name="B" unicode="B" horiz-adv-x="656" 
d="M290 35c-7 -6 -15 -11 -22 -16c-137 -90 -260 -19 -255 115c6 171 320 436 601 436c149 0 159 -68 157 -89c-6 -121 -205 -200 -246 -203c43 -16 114 -59 111 -121c-6 -121 -130 -170 -209 -170c-57 0 -103 22 -137 48zM468 263c-45 -76 -100 -155 -155 -208
c28 -22 64 -38 113 -39c66 -2 168 33 175 138c4 72 -78 99 -133 109zM405 295c21 1 36 -1 50 -1c61 104 101 197 104 203c9 19 29 -3 16 -31c-12 -25 -44 -93 -88 -170c97 15 237 104 248 172c9 48 -35 80 -123 78c-260 -7 -566 -267 -569 -418c-1 -44 25 -119 97 -122
c42 -1 85 19 126 51c-22 23 -35 47 -36 59c-2 12 7 35 15 21c11 -20 26 -41 44 -61c55 51 107 122 150 191c-11 1 -17 1 -19 1c-13 0 -35 26 -15 27z" />
    <glyph glyph-name="C" unicode="C" horiz-adv-x="405" 
d="M469 340c-142 -124 -188 -19 -128 45c19 20 45 34 61 37c11 2 13 -28 1 -32c-56 -23 -66 -74 -34 -74c36 0 107 56 139 113c31 57 21 113 -53 113c-176 0 -401 -243 -405 -383c-2 -52 11 -130 96 -147c72 -14 162 37 206 82c15 15 40 9 26 -7
c-150 -167 -364 -130 -364 63c0 115 86 236 193 318c162 122 353 140 353 18c0 -46 -42 -103 -91 -146z" />
    <glyph glyph-name="D" unicode="D" horiz-adv-x="699" 
d="M242 19c-48 14 -87 28 -125 27c-96 -2 -114 -79 -1 -80c40 -1 83 20 126 53zM573 468c12 9 24 -8 18 -22c-19 -42 -141 -275 -286 -411c37 -10 77 -18 122 -18c75 0 147 51 200 115c156 188 97 400 -103 400c-140 0 -269 -87 -287 -108c-3 -4 -37 -3 -23 12
c35 37 159 120 307 120c244 0 300 -243 131 -443c-58 -68 -137 -117 -227 -121c-59 -2 -108 6 -150 17c-57 -46 -116 -75 -174 -70c-133 12 -116 128 15 137c53 3 103 -14 157 -31c134 121 260 347 300 423z" />
    <glyph glyph-name="E" unicode="E" horiz-adv-x="378" 
d="M233 342c12 -28 41 -47 86 -47c91 0 83 61 -10 61c-23 0 -50 -5 -76 -14zM344 132c8 14 25 -6 18 -17c-32 -53 -93 -126 -210 -126c-59 0 -141 49 -137 150c5 114 91 180 178 215c-10 51 18 117 102 180c134 99 299 92 310 24c11 -61 -95 -106 -130 -108
c-21 -1 -20 17 -8 21c44 15 116 48 104 84c-10 33 -126 42 -263 -52c-59 -40 -85 -94 -81 -136c32 9 61 14 87 15c143 3 139 -121 0 -112c-54 3 -94 26 -112 60c-80 -36 -146 -108 -149 -186c-2 -75 32 -122 114 -122c83 0 150 64 177 110z" />
    <glyph glyph-name="F" unicode="F" horiz-adv-x="470" 
d="M670 512c33 -9 65 -13 101 -8c75 11 82 72 9 66c-36 -4 -73 -26 -110 -58zM345 314c15 4 72 4 126 3c47 72 90 133 135 180c-75 27 -167 79 -276 77c-124 -2 -154 -125 -149 -180c2 -18 -34 9 -33 30c6 121 84 174 184 177c133 4 219 -47 302 -77c40 36 82 60 131 69
c106 21 134 -69 41 -106c-31 -12 -84 -23 -164 -2c-50 -50 -98 -116 -134 -169c34 -2 62 -4 70 -6c12 -4 3 -31 0 -30c-16 4 -46 6 -90 7l-7 -11c-43 -65 -143 -292 -323 -284c-148 7 -162 182 -142 230c13 33 41 16 37 7c-23 -50 -13 -207 117 -211c126 -3 232 195 280 267
l1 2c-35 0 -76 -1 -124 -2c-16 -4 2 25 18 29z" />
    <glyph glyph-name="G" unicode="G" horiz-adv-x="455" 
d="M306 23c-333 -145 -357 -282 -331 -308c23 -24 98 6 152 69c65 76 125 158 179 239zM395 59c-11 -5 -21 -9 -31 -13c-54 -82 -116 -169 -191 -255c-103 -120 -193 -137 -227 -99c-16 18 -84 179 386 369c30 45 58 90 83 132c-364 -377 -559 -122 -215 206
c121 115 320 204 452 201c51 -1 73 -28 73 -49s-17 -34 -24 -39c-8 -5 5 27 -17 45c-44 35 -277 -13 -470 -187c-152 -137 -184 -289 -133 -327c68 -50 293 129 387 239c65 111 108 192 123 203c9 7 50 9 29 -13c-48 -49 -116 -204 -233 -390l16 6c10 4 11 -16 -8 -29z" />
    <glyph glyph-name="H" unicode="H" horiz-adv-x="734" 
d="M779 575c9 6 35 -4 23 -19c-73 -89 -128 -163 -170 -228c4 0 8 -1 12 -1c14 -2 28 -40 4 -34c-6 1 -19 2 -37 2c-30 -50 -53 -95 -71 -139c-30 -74 -6 -142 47 -142s113 66 118 73c6 6 17 -11 14 -16c-4 -4 -46 -59 -106 -81c-61 -22 -121 25 -120 110
c0 47 33 120 77 194c-59 -2 -139 -7 -206 -12c-103 -178 -146 -278 -233 -293c-94 -17 -128 119 -125 140c1 9 27 37 30 6c2 -40 30 -120 93 -107c60 12 123 134 180 228l13 23c-28 -3 -53 -5 -69 -7c-17 -2 8 35 30 39c4 0 28 3 62 5c129 212 152 240 170 255
c2 3 42 11 29 -8c-66 -92 -117 -173 -158 -243c65 5 147 10 205 9c72 116 162 227 188 246z" />
    <glyph glyph-name="I" unicode="I" horiz-adv-x="341" 
d="M646 592c-7 -4 -50 -23 -101 -47c-29 -34 -74 -101 -149 -224c-96 -160 -169 -333 -269 -333s-125 140 -106 195c7 20 35 21 34 15c-7 -30 -18 -165 67 -177c82 -11 199 252 267 353c41 60 86 121 107 149c-77 -35 -156 -71 -157 -71c-59 -30 -122 -94 -59 -204
c6 -11 -24 -11 -30 1c-5 11 -28 46 -28 107s58 108 152 143c148 55 199 87 244 108c12 6 39 -9 28 -15z" />
    <glyph glyph-name="J" unicode="J" horiz-adv-x="335" 
d="M252 60c-58 -88 -124 -177 -191 -255c-104 -120 -194 -137 -227 -99c-16 18 -85 181 392 371c102 156 169 301 176 408c7 95 -56 99 -125 60c-18 -10 -66 -33 -157 -155c-91 -121 -85 -283 -1 -285c6 0 -9 -26 -38 -29c-44 -4 -77 84 -61 174c26 151 204 356 339 349
c63 -3 83 -55 81 -112c-3 -88 -70 -237 -166 -391l16 6c11 4 12 -16 -7 -30c-11 -4 -21 -8 -31 -12zM15 -202c68 81 131 162 186 241c-340 -146 -364 -284 -339 -310c24 -24 99 6 153 69z" />
    <glyph glyph-name="K" unicode="K" horiz-adv-x="536" 
d="M185 281c15 25 29 47 42 68c-9 1 -18 0 -27 -1c-46 -8 -77 -33 -72 -47c6 -16 27 -23 57 -20zM294 318c-10 10 -21 18 -34 24c-16 -25 -27 -43 -30 -48l-2 -4c20 7 43 16 66 28zM746 603c6 3 40 -19 22 -24c-55 -17 -279 -160 -411 -254c-5 -3 -9 -6 -14 -9
c60 -94 56 -287 164 -311c21 -5 11 -31 5 -32c-129 -6 -130 218 -200 323c-42 -24 -77 -37 -105 -42c-122 -204 -174 -251 -185 -259c-12 -9 -36 7 -28 15c32 28 84 98 171 240l1 1c-23 1 -40 8 -50 16c-55 45 1 98 75 110c17 3 36 3 54 0c98 155 140 207 151 218
c15 13 40 -5 34 -11c-38 -46 -106 -145 -152 -215c18 -7 36 -18 49 -32c13 7 25 16 38 25c328 244 375 238 381 241z" />
    <glyph glyph-name="L" unicode="L" horiz-adv-x="562" 
d="M249 68c-40 22 -80 41 -118 41c-53 0 -80 -23 -83 -48c-5 -41 65 -108 201 7zM607 464c136 -2 210 51 217 91c4 25 -48 23 -115 -14c-32 -18 -67 -44 -102 -77zM400 567c4 -10 28 -88 165 -101c40 44 84 83 134 110c47 25 121 43 149 6c28 -36 -43 -116 -140 -137
c-36 -7 -83 -13 -131 -12l-8 -9c-23 -26 -82 -130 -159 -231c-39 -52 -76 -92 -111 -123c38 -21 74 -39 113 -39c75 0 115 90 117 93c6 9 20 -7 21 -18c1 -17 -46 -98 -130 -103c-45 -3 -93 22 -142 49c-167 -136 -272 -53 -268 10c2 41 43 80 122 74c53 -5 97 -27 137 -49
c34 32 72 74 113 131c49 67 99 148 158 219c-67 9 -129 37 -159 104c-8 17 15 38 19 26z" />
    <glyph glyph-name="M" unicode="M" horiz-adv-x="889" 
d="M32 79c1 -5 18 -61 54 -61s115 56 239 267c104 177 193 299 256 300c56 0 20 -87 -42 -211c-36 -73 -130 -288 -113 -305c17 -16 162 196 175 212c102 126 170 204 218 250c111 111 186 83 89 -63c-25 -38 -149 -209 -195 -330c-62 -161 64 -112 134 -40
c10 10 24 -4 20 -9c-159 -168 -246 -88 -188 64c55 143 202 328 226 372c10 21 -4 37 -57 -12c-148 -137 -333 -398 -392 -464c-24 -27 -65 -51 -61 28c3 54 50 163 93 260c41 94 79 178 81 189c6 26 -16 28 -61 -25c-23 -27 -89 -126 -176 -268
c-57 -92 -158 -243 -243 -243c-71 0 -79 79 -80 88c-1 12 22 9 23 1z" />
    <glyph glyph-name="N" unicode="N" horiz-adv-x="630" 
d="M41 83c-1 -16 15 -68 58 -64c42 4 86 91 135 167c39 58 72 110 83 127c52 81 146 218 184 243c29 19 50 13 31 -96c-21 -126 -41 -255 -55 -387c-1 -23 8 -33 43 26c183 310 184 316 261 475c6 12 24 -18 21 -25c-4 -7 -180 -377 -310 -541c-25 -31 -51 4 -48 57
c8 154 60 418 62 431s-4 28 -31 -7c-60 -79 -123 -181 -179 -273c-75 -121 -143 -231 -203 -228c-62 2 -82 75 -81 99c1 14 30 15 29 -4z" />
    <glyph glyph-name="O" unicode="O" horiz-adv-x="447" 
d="M235 452c-38 -42 -62 -85 -70 -106c-7 -17 10 -31 14 -21c15 31 58 93 113 142c142 127 291 62 189 -149c-69 -140 -220 -301 -327 -301c-63 0 -108 57 -108 137c0 122 121 250 189 298zM260 478c-3 9 -11 18 -21 20c-31 4 -230 -185 -229 -358c0 -77 59 -153 147 -153
c142 0 323 227 377 375c11 28 17 54 17 75c0 131 -111 156 -222 93c-25 -14 -48 -32 -69 -52z" />
    <glyph glyph-name="P" unicode="P" horiz-adv-x="509" 
d="M398 229c-33 -52 -68 -105 -108 -153c-168 -206 -362 -7 -239 202c88 150 306 290 501 290c91 0 182 -27 182 -109c0 -111 -149 -232 -300 -232c-13 0 -25 1 -36 2zM576 515c14 3 9 -14 7 -16c-50 -41 -104 -140 -171 -247c9 -1 17 -1 27 -1c107 2 260 119 261 197
c1 46 -16 93 -134 93c-182 0 -400 -126 -482 -274c-123 -224 72 -329 187 -167c32 45 63 92 91 137c-60 19 -62 60 -51 54c10 -5 29 -22 65 -33c33 52 62 99 86 136c71 107 105 119 114 121z" />
    <glyph glyph-name="Q" unicode="Q" horiz-adv-x="478" 
d="M136 -16c-48 6 -84 35 -106 76c-30 58 -26 139 9 203c27 49 51 82 75 110c51 59 107 92 122 97c13 5 22 -4 25 -12c16 18 33 34 52 47c200 149 349 20 227 -195c-72 -127 -140 -221 -290 -301c-30 -16 -58 -24 -84 -26c10 -27 31 -49 60 -55c61 -14 113 39 121 48
c9 8 26 10 19 -1c-27 -46 -76 -81 -133 -73c-54 7 -85 40 -97 82zM165 127c6 9 22 -12 17 -20c-20 -28 -27 -62 -24 -94c22 1 47 8 75 21c127 61 217 190 272 286c108 190 -8 299 -170 164c-100 -84 -130 -146 -133 -151c-8 -9 -23 -2 -15 17c16 34 39 69 65 99
c-54 -14 -138 -120 -178 -194c-53 -99 -32 -224 57 -240c-2 38 10 79 34 112z" />
    <glyph glyph-name="R" unicode="R" horiz-adv-x="649" 
d="M412 243c-8 -1 -17 -3 -24 -3c-39 -56 -76 -111 -108 -154c-145 -202 -337 -67 -240 144c110 242 421 335 537 347c220 23 236 -133 65 -248c-59 -39 -128 -65 -192 -79c90 -114 131 -317 228 -284c18 6 25 -17 19 -19c-162 -57 -187 185 -285 296zM361 259l12 17
c-13 8 -27 14 -43 17c-65 13 -78 -39 31 -34zM573 522c16 14 19 -12 14 -17c-40 -39 -104 -128 -168 -221l15 -15c57 13 110 37 158 62c127 67 207 229 24 219c-210 -10 -442 -150 -531 -305c-86 -147 -14 -227 37 -230c50 -3 92 35 134 91c22 29 54 77 91 131
c-20 0 -37 2 -50 5c-76 18 -64 85 30 82c24 -1 46 -9 65 -20c61 87 128 176 181 218z" />
    <glyph glyph-name="S" unicode="S" horiz-adv-x="458" 
d="M83 273c-73 -94 -26 -250 118 -250c106 0 198 111 194 175c-8 105 -216 80 -216 192c0 87 153 147 221 167c80 23 238 28 139 -85c-24 -29 -65 -52 -86 -56c-26 -5 -15 20 -12 21c49 10 103 70 98 89c-3 13 -31 15 -63 12c-67 -7 -159 -38 -229 -94
c-58 -46 -31 -86 18 -109c34 -17 77 -29 108 -44c75 -37 79 -118 25 -190c-35 -45 -96 -105 -191 -113c-162 -12 -247 181 -155 291c12 14 40 6 31 -6z" />
    <glyph glyph-name="T" unicode="T" horiz-adv-x="389" 
d="M593 508c26 -6 51 -9 75 -6c68 8 77 57 -3 38c-26 -6 -50 -17 -72 -32zM312 576c99 -1 176 -35 243 -57c34 26 70 45 111 54c116 27 116 -81 7 -93c-42 -5 -76 -1 -108 7c-167 -143 -248 -499 -421 -499c-100 0 -155 143 -121 230c6 16 32 1 26 -11
c-25 -50 15 -195 101 -188c132 10 212 325 379 478c-61 20 -122 48 -222 50c-93 2 -164 -53 -172 -124c-3 -34 5 -68 19 -81c4 -5 3 -29 -11 -21c-18 11 -44 52 -42 97c6 91 98 158 211 158z" />
    <glyph glyph-name="U" unicode="U" horiz-adv-x="456" 
d="M408 -8c5 -7 9 -31 -14 -28c-38 5 -56 55 -55 96c2 40 12 92 28 132c-26 -31 -58 -66 -95 -101c-211 -197 -365 -89 -177 165c64 86 129 155 171 200c60 65 34 72 -1 59c0 0 -27 32 25 40c31 4 90 -12 38 -77c-38 -49 -139 -148 -207 -239c-147 -195 -46 -293 126 -125
c152 148 343 398 360 418c5 6 43 -4 31 -19c-11 -15 -207 -236 -241 -325c-17 -46 -50 -178 11 -196z" />
    <glyph glyph-name="V" unicode="V" horiz-adv-x="308" 
d="M35 402c-7 -12 -20 14 -12 30c2 5 62 115 140 102c85 -13 -22 -248 -53 -321c-30 -72 -87 -203 -52 -200c39 4 230 216 302 319c73 103 88 177 87 205c-1 11 40 28 36 -22c-13 -155 -299 -440 -357 -491c-62 -55 -102 -43 -111 -5c-9 37 16 88 75 235
c67 167 91 251 49 249c-41 -2 -101 -96 -104 -101z" />
    <glyph glyph-name="W" unicode="W" horiz-adv-x="638" 
d="M576 485c-11 -20 -148 -234 -201 -338c-52 -103 -15 -161 56 -104c179 145 305 353 329 420c16 44 7 62 2 86c-4 24 23 29 32 20s18 -30 10 -77c-23 -147 -277 -416 -350 -474c-88 -70 -157 -5 -133 90c28 106 178 300 208 349c31 51 8 50 -9 32
c-151 -159 -302 -392 -366 -465c-66 -75 -157 -40 -131 79c22 103 160 251 212 344c34 62 -3 63 -26 45s-69 -66 -79 -74c-11 -8 -20 17 -17 22c4 5 72 97 134 98c61 1 39 -80 -13 -155s-132 -181 -172 -279c-30 -74 15 -128 84 -39c65 84 241 349 360 454
c54 48 91 6 70 -34z" />
    <glyph glyph-name="X" unicode="X" horiz-adv-x="832" 
d="M808 433c19 6 40 -7 19 -21c-54 -36 -73 -107 -14 -79c27 12 67 47 96 83c60 74 47 146 -35 146c-111 0 -287 -141 -355 -251c-60 -97 -77 -285 54 -297c110 -9 232 112 227 106c6 6 17 -10 11 -21c-5 -11 -97 -112 -228 -112c-86 0 -169 74 -140 214
c-97 -142 -222 -237 -330 -207c-67 19 -113 98 -105 171c4 29 43 6 38 -11c-13 -40 28 -135 99 -135c148 0 312 228 366 365c59 152 -60 238 -232 86c-27 -24 -83 -94 -98 -133c-3 -11 -24 2 -17 26c22 69 158 218 268 218c83 0 155 -53 116 -175c108 122 262 176 326 176
c128 0 138 -99 52 -194c-52 -58 -158 -123 -178 -74c-25 61 48 115 60 119z" />
    <glyph glyph-name="Y" unicode="Y" horiz-adv-x="387" 
d="M139 -32c-78 -32 -162 -71 -240 -123c-155 -102 -133 -205 -19 -134c72 44 175 153 259 257zM191 553c59 22 94 -17 56 -80c-46 -76 -134 -170 -183 -271c-35 -73 -2 -199 121 -100c74 59 141 163 207 260c68 100 105 155 105 155c6 8 29 -14 20 -29
c-21 -36 -145 -257 -294 -463c54 16 102 29 136 38c5 1 14 -18 0 -22c-45 -13 -101 -30 -163 -52c-114 -151 -238 -288 -341 -327c-80 -30 -115 22 -105 66c30 137 247 228 423 283c36 46 67 89 87 123c-150 -195 -301 -74 -225 92c43 93 109 170 158 230c31 38 45 75 3 59
c-72 -26 -119 -72 -134 -86c-10 -10 -13 27 1 40c14 14 75 64 128 84z" />
    <glyph glyph-name="Z" unicode="Z" horiz-adv-x="425" 
d="M288 26c-79 -36 -193 -93 -315 -173c-164 -107 -151 -204 -23 -145c212 99 302 237 338 318zM231 168c-50 5 -113 -12 -153 -40c-24 -17 -33 -33 -31 -43c5 -27 86 2 184 83zM70 151c67 43 141 59 196 48c42 39 87 88 129 145c83 113 15 193 -130 115
c-126 -68 -197 -149 -209 -161c-13 -11 -24 12 -17 21c31 39 102 108 219 170c112 60 299 71 184 -137c-21 -38 -79 -103 -145 -163c39 -19 60 -57 46 -114c22 9 39 16 48 19c5 2 14 -15 0 -22c-8 -4 -28 -12 -57 -25c-4 -10 -9 -20 -15 -30c-56 -102 -222 -317 -411 -360
c-80 -18 -103 37 -91 79c38 128 327 259 483 322c2 5 3 9 4 13c14 50 -5 78 -39 90c-104 -88 -220 -157 -251 -100c-11 20 5 57 56 90z" />
    <glyph glyph-name="backslash" unicode="\" horiz-adv-x="233" 
d="M-27 617c-6 13 26 22 32 10c68 -144 286 -564 318 -629c9 -20 -15 -26 -22 -15c-40 72 -259 495 -328 634z" />
    <glyph glyph-name="asciicircum" unicode="^" horiz-adv-x="179" 
d="M48 185c8 7 67 62 73 37c1 -6 7 -37 8 -40c1 -8 -22 -24 -24 -6c-2 8 -5 16 -7 22c-7 -6 -30 -21 -40 -29c-5 -4 -14 12 -10 16z" />
    <glyph glyph-name="underscore" unicode="_" horiz-adv-x="233" 
d="M205 24c11 -4 8 -25 -5 -24c-16 2 -158 -3 -167 -2c-9 0 -14 19 -10 20c3 0 37 7 67 8c17 1 106 0 115 -2z" />
    <glyph glyph-name="grave" unicode="`" horiz-adv-x="229" 
d="M143 187c2 -2 -1 -15 -5 -18c-4 -4 -40 29 -49 38c0 0 0 35 13 23c7 -5 38 -39 41 -43z" />
    <glyph glyph-name="a" unicode="a" 
d="M386 86c-5 -5 -82 -81 -145 -91c-51 -8 -82 27 -67 77c-75 -78 -102 -85 -134 -80c-37 6 -62 64 -8 141c54 76 127 99 154 99c24 0 45 -16 50 -41c9 11 16 19 19 20c8 4 29 -14 29 -19c0 -3 -26 -29 -49 -54c-64 -98 -34 -134 58 -88c27 13 56 33 88 61
c12 10 10 -20 5 -25zM196 136l10 14h-1s18 50 -23 50c-90 0 -185 -159 -133 -172c49 -13 140 102 147 108z" />
    <glyph glyph-name="b" unicode="b" horiz-adv-x="250" 
d="M203 128c52 65 18 96 -4 51c-15 -29 -7 -47 4 -51zM38 99c-11 -42 -4 -69 28 -70c25 0 64 20 109 67c-14 17 -24 71 7 107c49 59 99 24 67 -43c-39 -83 -121 -157 -180 -162c-26 -2 -72 36 -62 94c29 172 212 366 318 412c46 20 87 21 39 -58
c-29 -50 -149 -194 -326 -347zM51 139c131 127 249 259 268 283c55 71 40 88 -34 26c-98 -82 -194 -215 -234 -309z" />
    <glyph glyph-name="c" unicode="c" horiz-adv-x="244" 
d="M16 38c-15 27 -27 89 62 161c81 66 160 50 150 2c-6 -24 -34 -47 -42 -53c-5 -4 -24 14 -9 26c26 22 16 51 -12 44c-20 -5 -74 -41 -102 -82c-72 -107 38 -167 198 -25c12 10 10 -20 6 -25c-5 -5 -74 -77 -136 -85c-52 -8 -95 3 -115 37z" />
    <glyph glyph-name="d" unicode="d" horiz-adv-x="332" 
d="M208 147c95 89 170 180 188 199c168 180 72 164 -73 -8c-57 -69 -95 -137 -115 -191zM188 184c-15 48 -87 -3 -118 -49c-65 -100 -33 -130 41 -72c19 14 37 30 55 45c3 23 10 48 22 76zM377 281c-64 -68 -129 -130 -181 -176c-9 -45 -1 -74 23 -76c22 -1 56 16 130 82
c12 10 10 -20 6 -25c-5 -5 -88 -88 -136 -86c-30 1 -54 28 -55 77c-33 -29 -58 -48 -68 -54c-86 -51 -136 33 -47 136c74 85 134 73 155 60c22 41 54 88 98 139c205 238 326 190 75 -77z" />
    <glyph glyph-name="e" unicode="e" horiz-adv-x="227" 
d="M38 84c20 11 62 38 89 64c70 68 36 85 -34 23c-26 -24 -47 -58 -55 -87zM157 45c26 13 56 38 87 66c12 10 10 -20 5 -25c-4 -5 -82 -82 -145 -91c-51 -7 -84 11 -97 48c-16 40 6 96 53 139c111 101 186 58 105 -36c-18 -20 -100 -84 -129 -97c7 -31 42 -43 121 -4z" />
    <glyph glyph-name="f" unicode="f" horiz-adv-x="252" 
d="M79 6c-2 21 -8 37 -15 46c-21 30 -54 -8 -18 -37c8 -7 20 -9 33 -9zM63 121c72 52 179 150 281 279c110 141 13 111 -84 -8c-66 -82 -136 -179 -197 -271zM68 84c26 -15 39 -42 42 -71c56 17 125 68 159 98c11 10 10 -20 5 -25c-43 -43 -103 -88 -163 -98
c-3 -60 -34 -139 -97 -225c-105 -141 -256 -160 -179 38c40 103 332 562 474 681c111 92 154 34 70 -81c-37 -52 -205 -243 -311 -317zM3 28c-57 -90 -101 -166 -120 -205c-13 -28 -49 -112 -27 -131s66 13 99 50c92 105 121 188 124 243c-32 1 -61 13 -76 43z" />
    <glyph glyph-name="g" unicode="g" horiz-adv-x="323" 
d="M219 163c0 23 -11 42 -34 40c-109 -7 -199 -206 -107 -167c86 37 121 98 141 127zM105 -60c-194 -94 -247 -213 -218 -231c9 -5 51 2 87 45c59 72 100 133 131 186zM268 229c7 8 44 2 30 -10c-48 -41 -87 -128 -135 -224c49 26 99 55 124 73c15 11 32 25 53 43
c11 10 9 -20 5 -25c-3 -3 -31 -31 -64 -54c-37 -27 -85 -50 -137 -74c-42 -80 -91 -163 -157 -229c-50 -48 -102 -60 -126 -44c-38 27 -47 139 243 280c7 4 14 7 21 11c17 32 31 61 44 88c-62 -56 -120 -89 -154 -48c-52 62 75 239 189 215c20 -4 31 -21 37 -35
c8 11 17 22 27 33z" />
    <glyph glyph-name="h" unicode="h" horiz-adv-x="330" 
d="M108 212c91 82 272 269 248 290c-8 8 -40 5 -140 -120c-31 -37 -70 -91 -108 -170zM81 150l-3 -8c60 55 154 118 185 90c26 -23 -16 -82 -54 -132c-39 -49 -13 -69 8 -71c22 -1 55 16 130 82c12 10 10 -20 5 -25s-87 -88 -136 -86c-31 1 -55 23 -58 54c-3 35 12 51 49 95
c41 49 29 79 -28 37c-90 -65 -171 -180 -180 -189c-9 -8 -23 26 -10 51c148 309 239 415 308 460c96 62 127 -1 55 -84c-118 -136 -223 -232 -271 -274z" />
    <glyph glyph-name="i" unicode="i" horiz-adv-x="168" 
d="M51 30c-21 2 -25 21 -10 55c14 34 70 107 77 118c9 13 -8 33 -16 27c-7 -5 -26 -30 -60 -80c-42 -59 -55 -113 -23 -135c61 -43 166 66 171 71c4 5 6 35 -5 25c-75 -66 -110 -83 -134 -81zM167 305c27 -12 -3 -66 -34 -55c-15 5 -16 25 -9 39c8 16 27 24 43 16z" />
    <glyph glyph-name="j" unicode="j" horiz-adv-x="139" 
d="M149 305c27 -12 1 -65 -30 -55c-15 5 -19 24 -13 39c7 17 27 24 43 16zM-54 -14c75 125 128 224 139 232c5 5 26 -18 18 -30c-2 -3 -51 -84 -110 -181c56 26 113 57 163 104c11 10 10 -20 5 -25c-55 -55 -90 -70 -134 -90c-19 -8 -37 -15 -54 -23l-2 -3
c-61 -100 -104 -190 -176 -250c-67 -55 -111 24 -85 84c28 63 90 106 116 124c33 21 75 39 120 58zM-238 -178c-47 -63 -38 -123 19 -78c35 26 80 104 143 206v1c-60 -29 -113 -64 -162 -129z" />
    <glyph glyph-name="k" unicode="k" horiz-adv-x="344" 
d="M236 386c-50 -61 -93 -122 -125 -174c32 29 91 85 154 154c25 27 96 99 80 119c-12 15 -84 -69 -109 -99zM108 110c42 -31 133 21 160 56c28 36 -5 42 -37 26c-46 -23 -88 -53 -123 -82zM348 416c-74 -100 -283 -290 -289 -296c-3 -6 -6 -12 -8 -17c30 26 106 89 175 119
c57 25 129 11 70 -65c-49 -62 -120 -77 -134 -81c-13 -4 20 -46 69 -46c24 -1 55 15 130 81c12 10 10 -20 5 -25c-4 -5 -85 -86 -136 -86c-78 0 -119 63 -136 97c-56 -49 -92 -93 -96 -96c-7 -6 -38 -9 -27 16c47 109 230 405 312 472c77 62 136 22 65 -73z" />
    <glyph glyph-name="l" unicode="l" horiz-adv-x="183" 
d="M46 105c-3 -12 -4 -24 -4 -35c0 -31 11 -40 28 -41c22 -1 56 16 130 82c12 10 10 -20 6 -25c-5 -5 -88 -88 -136 -86c-79 3 -58 107 -43 155c50 159 186 287 241 322c45 29 75 28 84 16c46 -63 -220 -311 -306 -388zM54 139c91 81 296 297 266 326c-6 6 -24 1 -55 -24
c-67 -51 -174 -189 -211 -302z" />
    <glyph glyph-name="m" unicode="m" horiz-adv-x="436" 
d="M292 119c15 20 53 61 42 80c-9 16 -56 -10 -92 -42s-105 -128 -118 -137c-7 -5 -24 0 -19 11c6 11 42 63 75 123c34 60 -1 55 -19 40c-106 -87 -146 -154 -162 -173c-15 -19 -29 11 -19 27c82 137 124 187 130 193c3 3 15 -12 14 -20c-1 -12 -22 -38 -37 -59
c10 10 52 52 79 68c26 15 78 16 57 -59c46 45 111 83 138 57c15 -13 11 -60 -35 -113c-49 -57 -24 -84 -3 -86c22 -1 55 16 130 82c12 10 10 -20 5 -25s-82 -84 -136 -86c-35 -1 -93 37 -30 119z" />
    <glyph glyph-name="n" unicode="n" horiz-adv-x="279" 
d="M79 165c30 35 102 86 133 67c28 -17 6 -70 -36 -123c-37 -46 -37 -78 -10 -80c22 -1 55 16 130 82c12 10 10 -20 5 -25c-4 -5 -87 -88 -135 -86c-23 1 -49 8 -49 46c-1 44 44 93 60 120c28 44 -4 51 -55 6c-25 -22 -62 -57 -90 -90c-20 -36 -37 -64 -40 -67
c-13 -12 -25 13 -16 33c23 36 60 96 114 200c4 7 29 -1 29 -8c0 -2 -18 -35 -40 -75z" />
    <glyph glyph-name="o" unicode="o" horiz-adv-x="231" 
d="M121 197c2 -3 2 -6 0 -8c-119 -100 -89 -169 -53 -167c21 2 47 16 82 58c102 124 44 169 -29 117zM94 203c3 11 33 30 55 36c94 27 132 -65 2 -198c-108 -111 -197 -18 -118 97c19 27 44 49 60 61c0 1 0 3 1 4z" />
    <glyph glyph-name="p" unicode="p" horiz-adv-x="221" 
d="M56 101c-9 -25 -16 -46 -19 -60c15 -49 73 -15 108 38c43 67 40 107 11 106c-25 0 -61 -35 -100 -84zM37 131c20 84 39 133 43 139c4 7 38 10 33 -5c-10 -30 -20 -59 -30 -87c29 27 57 42 80 42c52 -1 66 -78 1 -163c-68 -89 -114 -75 -137 -54
c-53 -200 -128 -400 -184 -386c-122 30 124 454 194 514zM-103 -150c-27 -57 -47 -109 -51 -147c-23 -181 82 83 92 111c25 72 53 156 71 216c0 4 2 9 4 14v0v0c-47 -68 -91 -144 -116 -194z" />
    <glyph glyph-name="q" unicode="q" horiz-adv-x="256" 
d="M137 1c-6 1 -11 3 -15 6c-62 -92 -121 -192 -137 -253c-17 -64 -11 -104 36 -25c57 96 106 215 116 272zM206 173c-2 10 -9 21 -31 24c-38 6 -110 -48 -139 -111c-24 -53 -6 -84 41 -50c25 19 52 40 73 57c21 30 40 58 56 80zM98 15c-21 -17 -43 -29 -64 -26
c-57 7 -46 87 -2 150c54 78 133 93 161 83c14 -5 24 -16 29 -29c15 20 27 35 34 42c10 10 23 -8 20 -14c1 2 -58 -74 -124 -169c5 -4 9 -11 10 -20c22 7 55 29 112 79c11 10 10 -20 5 -25c-4 -4 -69 -70 -118 -84c-12 -86 -92 -282 -167 -336c-29 -21 -82 32 -11 160
c35 62 75 128 115 189z" />
    <glyph glyph-name="r" unicode="r" horiz-adv-x="257" 
d="M101 206c8 13 15 23 17 28c10 23 -21 17 -25 -8c-2 -11 1 -17 8 -20zM144 0c-59 2 -71 70 -3 150c21 24 30 40 25 45c-6 5 -31 -8 -54 -9c-26 -35 -61 -73 -96 -107c-7 -6 -13 20 -9 23c31 26 61 61 82 88c-13 7 -22 20 -17 43c15 63 92 57 74 11c-5 -12 -12 -24 -20 -37
c12 3 25 8 33 11c43 16 71 -4 29 -53c-22 -27 -97 -130 -43 -136c21 -2 55 16 130 82c11 10 9 -20 5 -25c-5 -5 -88 -88 -136 -86z" />
    <glyph glyph-name="s" unicode="s" horiz-adv-x="243" 
d="M92 7c-46 21 -55 87 -57 84c-19 -28 3 -82 41 -85c6 -1 11 0 16 1zM122 211c22 24 38 46 36 54c-2 11 -27 8 -37 -31c-3 -8 -2 -16 1 -23zM38 129c19 17 44 41 67 65c-6 14 -8 28 -5 43c7 37 49 68 72 64s24 -23 8 -53c-9 -16 -26 -37 -46 -59c16 -22 40 -45 41 -83
c1 -25 -3 -49 -13 -69c22 11 52 33 98 74c12 10 10 -20 5 -25c-4 -5 -76 -78 -131 -86c-13 -10 -28 -17 -46 -20c-55 -7 -90 47 -88 102c1 52 29 58 38 47zM127 30c11 14 18 35 18 57c0 33 -16 59 -29 84c-23 -23 -48 -46 -67 -63c15 -28 45 -73 78 -78z" />
    <glyph glyph-name="t" unicode="t" horiz-adv-x="185" 
d="M178 336l64 3c53 62 54 79 45 80c-13 1 -62 -35 -109 -83zM61 153c72 69 122 121 157 160c-22 -1 -43 -2 -63 -4c-28 -33 -71 -94 -94 -156zM255 315l-5 -5c-69 -76 -157 -160 -202 -201c-3 -14 -5 -27 -5 -39c0 -31 11 -40 29 -41c22 -1 55 11 130 77
c12 10 10 -15 5 -20c-4 -5 -87 -88 -135 -86c-106 3 -54 165 -3 245c12 18 27 39 46 62c-55 -4 -93 -6 -93 -6c-19 -2 -1 24 9 25c4 1 48 3 105 7c145 170 260 155 141 9c79 4 148 7 156 5c7 -2 7 -27 0 -27c-38 1 -107 -1 -178 -5z" />
    <glyph glyph-name="u" unicode="u" horiz-adv-x="302" 
d="M189 0c-47 0 -70 50 -43 90c-75 -94 -147 -113 -141 -27c6 87 96 161 100 166c5 5 34 -2 22 -18c-11 -14 -65 -70 -81 -116c-17 -45 -9 -71 37 -36c45 34 105 110 142 167c5 9 38 3 26 -13s-55 -77 -73 -117c-31 -69 14 -72 41 -61c22 8 53 34 100 76c12 10 10 -20 5 -25
c-4 -5 -85 -86 -135 -86z" />
    <glyph glyph-name="v" unicode="v" horiz-adv-x="233" 
d="M142 54c-67 -67 -80 -65 -93 -65c-12 0 -53 15 -44 84c10 71 91 146 96 151c6 5 31 -4 24 -13c-8 -10 -64 -86 -83 -131s3 -72 29 -48c120 105 158 202 170 209c13 8 20 -15 17 -21c-27 -57 -75 -124 -116 -166z" />
    <glyph glyph-name="w" unicode="w" horiz-adv-x="353" 
d="M135 62l1 5c-25 -28 -74 -70 -99 -73s-43 21 -37 71c8 65 90 143 103 149c20 9 29 -10 25 -13c0 0 -52 -54 -80 -106c-13 -24 -28 -59 -14 -67c20 -13 103 68 138 122c11 17 32 50 48 59c19 11 29 -19 23 -23c-5 -4 -11 -10 -39 -44c-27 -35 -73 -140 -10 -118
c41 15 154 162 175 215c2 6 22 -10 18 -22c-7 -24 -129 -231 -210 -229c-44 1 -45 56 -42 74z" />
    <glyph glyph-name="x" unicode="x" horiz-adv-x="270" 
d="M278 237c8 2 23 -21 19 -23c-64 -32 -121 -69 -167 -104c-19 -73 6 -79 27 -81c22 -1 55 16 130 82c12 10 10 -20 6 -25c-5 -5 -83 -83 -133 -88c-40 -5 -75 12 -65 85c-59 -48 -96 -87 -103 -97c-2 -2 -18 18 -9 30c33 40 78 79 123 113c13 47 15 80 -34 35
c-7 -6 -19 14 -15 21c3 5 17 18 26 26c48 38 84 25 61 -55c67 47 126 78 134 81z" />
    <glyph glyph-name="y" unicode="y" horiz-adv-x="249" 
d="M122 -2c17 37 31 67 32 71c-84 -98 -151 -96 -148 -14c3 78 76 149 93 159s37 -6 33 -10c-4 -3 -85 -63 -93 -148c-3 -32 25 -33 60 -3c55 46 137 160 143 165c6 7 29 -9 23 -17c-30 -45 -61 -103 -91 -164c35 26 66 50 92 74c12 10 10 -21 6 -25
c-30 -30 -76 -64 -124 -101c-52 -106 -103 -209 -148 -257c-49 -52 -104 -78 -132 -52c-28 25 -4 95 61 158c67 65 133 118 193 164zM-14 -152c-99 -103 -109 -147 -96 -157c17 -14 77 23 166 173c11 17 26 49 42 83c-41 -33 -81 -66 -112 -99z" />
    <glyph glyph-name="z" unicode="z" horiz-adv-x="248" 
d="M103 -46c-69 -50 -141 -101 -200 -158c-63 -61 -64 -93 -53 -101c16 -11 106 51 166 116c40 44 72 97 87 143zM-72 -137c74 57 131 96 182 131c1 24 -6 43 -32 48c-30 -17 -60 -29 -86 -36c-50 -12 -41 22 -9 37c16 7 41 15 67 18c49 31 111 75 123 99c7 13 3 38 -30 34
c-56 -8 -118 -61 -124 -67c-11 -10 -21 24 -13 30c7 6 58 52 140 66c80 13 80 -61 47 -95c-26 -25 -57 -49 -89 -70c20 -6 36 -19 42 -40c40 28 78 56 119 93c12 10 10 -20 5 -25c-33 -34 -76 -67 -123 -100c-10 -72 -89 -179 -141 -227c-63 -58 -150 -118 -185 -83
c-35 34 16 117 107 187z" />
    <glyph glyph-name="asciitilde" unicode="~" horiz-adv-x="229" 
d="M172 203c7 -3 -5 -25 -16 -21c-46 16 -43 -16 -91 0c-7 3 -3 24 0 23c36 -12 62 18 107 -2z" />
    <glyph glyph-name="Adieresis" unicode="&#xc4;" horiz-adv-x="778" 
d="M515 268c113 125 241 265 298 265c11 0 24 -28 -38 -109c-31 -40 -75 -98 -114 -160c-42 2 -95 4 -146 4zM828 558c-57 8 -136 -37 -348 -287l-3 -4c-24 -1 -47 -2 -65 -5c-22 -2 -40 -42 -25 -39c22 4 41 7 60 10c-281 -315 -374 -197 -410 -110c-4 11 -36 1 -25 -29
c14 -35 63 -104 141 -100c45 2 116 20 218 119c32 31 73 76 118 126c61 7 109 8 159 5c-39 -62 -72 -126 -82 -179c-11 -62 49 -141 170 -5c5 5 -5 27 -18 11c-24 -31 -81 -63 -108 -55c-26 7 -13 89 38 169c11 17 24 36 38 57l17 -1c24 -2 37 14 27 17c-4 1 -15 2 -30 3
c48 70 104 147 128 184c34 51 34 109 0 113zM823 626c21 -9 2 -42 -23 -34c-23 8 -9 49 23 34zM900 626c21 -9 2 -42 -23 -34c-23 8 -9 49 23 34z" />
    <glyph glyph-name="Aring" unicode="&#xc5;" horiz-adv-x="778" 
d="M515 268c113 125 241 265 298 265c11 0 24 -28 -38 -109c-31 -40 -75 -98 -114 -160c-42 2 -95 4 -146 4zM828 558c-57 8 -136 -37 -348 -287l-3 -4c-24 -1 -47 -2 -65 -5c-22 -2 -40 -42 -25 -39c22 4 41 7 60 10c-281 -315 -374 -197 -410 -110c-4 11 -36 1 -25 -29
c14 -35 63 -104 141 -100c45 2 116 20 218 119c32 31 73 76 118 126c61 7 109 8 159 5c-39 -62 -72 -126 -82 -179c-11 -62 49 -141 170 -5c5 5 -5 27 -18 11c-24 -31 -81 -63 -108 -55c-26 7 -13 89 38 169c11 17 24 36 38 57l17 -1c24 -2 37 14 27 17c-4 1 -15 2 -30 3
c48 70 104 147 128 184c34 51 34 109 0 113zM870 633c-14 2 -25 -23 -11 -26c15 -3 25 24 11 26zM880 655c21 -2 22 -22 17 -36c-7 -26 -27 -36 -45 -33c-20 2 -29 21 -20 39c7 14 26 33 48 30z" />
    <glyph glyph-name="Ccedilla" unicode="&#xc7;" horiz-adv-x="405" 
d="M171 -19c-88 -1 -157 59 -157 169c0 115 86 236 193 318c162 122 353 140 353 18c0 -46 -42 -103 -91 -146c-142 -124 -188 -19 -128 45c19 20 45 34 61 37c11 2 13 -28 1 -32c-56 -23 -66 -74 -34 -74c36 0 107 56 139 113c31 57 21 113 -53 113
c-176 0 -401 -243 -405 -383c-2 -52 11 -130 96 -147c72 -14 162 37 206 82c15 15 40 9 26 -7c-61 -68 -132 -102 -195 -106c0 -3 -2 -10 -4 -12c-2 -5 -2 -4 -10 -5c-21 -3 -20 -32 5 -13c4 5 9 -3 7 -6c-32 -31 -57 17 -13 29c2 0 3 5 3 7z" />
    <glyph glyph-name="Eacute" unicode="&#xc9;" horiz-adv-x="378" 
d="M233 342c12 -28 41 -47 86 -47c91 0 83 61 -10 61c-23 0 -50 -5 -76 -14zM344 132c8 14 25 -6 18 -17c-32 -53 -93 -126 -210 -126c-59 0 -141 49 -137 150c5 114 91 180 178 215c-10 51 18 117 102 180c134 99 299 92 310 24c11 -61 -95 -106 -130 -108
c-21 -1 -20 17 -8 21c44 15 116 48 104 84c-10 33 -126 42 -263 -52c-59 -40 -85 -94 -81 -136c32 9 61 14 87 15c143 3 139 -121 0 -112c-54 3 -94 26 -112 60c-80 -36 -146 -108 -149 -186c-2 -75 32 -122 114 -122c83 0 150 64 177 110zM569 636c3 4 34 39 41 44
c13 12 13 -24 13 -24c-9 -9 -45 -42 -49 -38s-7 16 -5 18z" />
    <glyph glyph-name="Ntilde" unicode="&#xd1;" horiz-adv-x="630" 
d="M41 83c1 19 -28 18 -29 4c-1 -24 19 -97 81 -99c60 -3 128 107 203 228c56 92 119 194 179 273c27 35 33 20 31 7s-54 -277 -62 -431c-3 -53 23 -88 48 -57c130 164 306 534 310 541c3 7 -15 37 -21 25c-77 -159 -78 -165 -261 -475c-35 -59 -44 -49 -43 -26
c14 132 34 261 55 387c19 109 -2 115 -31 96c-38 -25 -132 -162 -184 -243c-11 -17 -44 -69 -83 -127c-49 -76 -93 -163 -135 -167c-43 -4 -59 48 -58 64zM719 615c6 -3 -6 -26 -17 -22c-46 16 -42 -16 -91 1c-7 2 -3 23 0 22c36 -12 62 18 108 -1z" />
    <glyph glyph-name="Odieresis" unicode="&#xd6;" horiz-adv-x="447" 
d="M235 452c-38 -42 -62 -85 -70 -106c-7 -17 10 -31 14 -21c15 31 58 93 113 142c142 127 291 62 189 -149c-69 -140 -220 -301 -327 -301c-63 0 -108 57 -108 137c0 122 121 250 189 298zM260 478c-3 9 -11 18 -21 20c-31 4 -230 -185 -229 -358c0 -77 59 -153 147 -153
c142 0 323 227 377 375c11 28 17 54 17 75c0 131 -111 156 -222 93c-25 -14 -48 -32 -69 -52zM432 637c22 -10 2 -43 -22 -35c-23 8 -10 49 22 35zM510 637c21 -10 2 -43 -23 -35c-23 8 -10 49 23 35z" />
    <glyph glyph-name="Udieresis" unicode="&#xdc;" horiz-adv-x="456" 
d="M408 -8c-61 18 -28 150 -11 196c34 89 230 310 241 325c12 15 -26 25 -31 19c-17 -20 -208 -270 -360 -418c-172 -168 -273 -70 -126 125c68 91 169 190 207 239c52 65 -7 81 -38 77c-52 -8 -25 -40 -25 -40c35 13 61 6 1 -59c-42 -45 -107 -114 -171 -200
c-188 -254 -34 -362 177 -165c37 35 69 70 95 101c-16 -40 -26 -92 -28 -132c-1 -41 17 -91 55 -96c23 -3 19 21 14 28zM467 608c21 -10 2 -43 -23 -35c-23 8 -9 49 23 35zM544 608c21 -10 2 -43 -23 -35c-23 8 -9 49 23 35z" />
    <glyph glyph-name="aacute" unicode="&#xe1;" 
d="M386 86c-5 -5 -82 -81 -145 -91c-51 -8 -82 27 -67 77c-75 -78 -102 -85 -134 -80c-37 6 -62 64 -8 141c54 76 127 99 154 99c24 0 45 -16 50 -41c9 11 16 19 19 20c8 4 29 -14 29 -19c0 -3 -26 -29 -49 -54c-64 -98 -34 -134 58 -88c27 13 56 33 88 61
c12 10 10 -20 5 -25zM196 136l10 14h-1s18 50 -23 50c-90 0 -185 -159 -133 -172c49 -13 140 102 147 108zM214 287c3 4 35 38 41 44c13 12 13 -24 13 -24c-9 -9 -45 -42 -48 -38c-5 4 -8 16 -6 18z" />
    <glyph glyph-name="agrave" unicode="&#xe0;" 
d="M386 86c5 5 7 35 -5 25c-32 -28 -61 -48 -88 -61c-92 -46 -122 -10 -58 88c23 25 49 51 49 54c0 5 -21 23 -29 19c-3 -1 -10 -9 -19 -20c-5 25 -26 41 -50 41c-27 0 -100 -23 -154 -99c-54 -77 -29 -135 8 -141c32 -5 59 2 134 80c-15 -50 16 -85 67 -77
c63 10 140 86 145 91zM206 150l-10 -14c-7 -6 -98 -121 -147 -108c-52 13 43 172 133 172c41 0 23 -50 23 -50h1zM213 287c3 -2 0 -14 -5 -18c-4 -4 -40 29 -49 38c0 0 0 36 13 24c7 -6 38 -40 41 -44z" />
    <glyph glyph-name="acircumflex" unicode="&#xe2;" 
d="M386 86c5 5 7 35 -5 25c-32 -28 -61 -48 -88 -61c-92 -46 -122 -10 -58 88c23 25 49 51 49 54c0 5 -21 23 -29 19c-3 -1 -10 -9 -19 -20c-5 25 -26 41 -50 41c-27 0 -100 -23 -154 -99c-54 -77 -29 -135 8 -141c32 -5 59 2 134 80c-15 -50 16 -85 67 -77
c63 10 140 86 145 91zM206 150l-10 -14c-7 -6 -98 -121 -147 -108c-52 13 43 172 133 172c41 0 23 -50 23 -50h1zM177 285c8 6 67 62 73 36c1 -5 7 -36 8 -40c1 -8 -22 -23 -24 -5c-2 8 -5 16 -7 22c-8 -6 -30 -21 -40 -29c-5 -4 -14 12 -10 16z" />
    <glyph glyph-name="adieresis" unicode="&#xe4;" 
d="M386 86c5 5 7 35 -5 25c-32 -28 -61 -48 -88 -61c-92 -46 -122 -10 -58 88c23 25 49 51 49 54c0 5 -21 23 -29 19c-3 -1 -10 -9 -19 -20c-5 25 -26 41 -50 41c-27 0 -100 -23 -154 -99c-54 -77 -29 -135 8 -141c32 -5 59 2 134 80c-15 -50 16 -85 67 -77
c63 10 140 86 145 91zM206 150l-10 -14c-7 -6 -98 -121 -147 -108c-52 13 43 172 133 172c41 0 23 -50 23 -50h1zM195 307c21 -9 2 -43 -23 -34c-23 7 -10 49 23 34zM272 307c21 -9 2 -43 -23 -34c-23 7 -9 49 23 34z" />
    <glyph glyph-name="atilde" unicode="&#xe3;" 
d="M386 86c5 5 7 35 -5 25c-32 -28 -61 -48 -88 -61c-92 -46 -122 -10 -58 88c23 25 49 51 49 54c0 5 -21 23 -29 19c-3 -1 -10 -9 -19 -20c-5 25 -26 41 -50 41c-27 0 -100 -23 -154 -99c-54 -77 -29 -135 8 -141c32 -5 59 2 134 80c-15 -50 16 -85 67 -77
c63 10 140 86 145 91zM206 150l-10 -14c-7 -6 -98 -121 -147 -108c-52 13 43 172 133 172c41 0 23 -50 23 -50h1zM278 303c7 -3 -6 -26 -16 -22c-46 16 -43 -16 -92 1c-7 2 -2 24 1 23c36 -13 62 18 107 -2z" />
    <glyph glyph-name="aring" unicode="&#xe5;" 
d="M386 86c5 5 7 35 -5 25c-32 -28 -61 -48 -88 -61c-92 -46 -122 -10 -58 88c23 25 49 51 49 54c0 5 -21 23 -29 19c-3 -1 -10 -9 -19 -20c-5 25 -26 41 -50 41c-27 0 -100 -23 -154 -99c-54 -77 -29 -135 8 -141c32 -5 59 2 134 80c-15 -50 16 -85 67 -77
c63 10 140 86 145 91zM206 150l-10 -14c-7 -6 -98 -121 -147 -108c-52 13 43 172 133 172c41 0 23 -50 23 -50h1zM226 309c-14 2 -25 -23 -10 -26c14 -3 24 24 10 26zM236 332c21 -3 22 -23 18 -37c-8 -25 -28 -36 -46 -33c-20 3 -28 21 -20 39c7 15 26 33 48 31z" />
    <glyph glyph-name="ccedilla" unicode="&#xe7;" horiz-adv-x="244" 
d="M111 -1c-43 -3 -77 9 -95 39c-15 27 -27 89 62 161c81 66 160 50 150 2c-6 -24 -34 -47 -42 -53c-5 -4 -24 14 -9 26c26 22 16 51 -12 44c-20 -5 -74 -41 -102 -82c-72 -107 38 -167 198 -25c12 10 10 -20 6 -25c-5 -5 -74 -77 -136 -85c-3 -1 -5 -1 -8 -1
c0 -3 -2 -11 -4 -13c-2 -4 -2 -3 -10 -4c-21 -4 -20 -32 5 -13c4 4 9 -4 7 -6c-32 -32 -57 17 -13 28c2 0 3 4 3 7z" />
    <glyph glyph-name="eacute" unicode="&#xe9;" horiz-adv-x="227" 
d="M38 84c20 11 62 38 89 64c70 68 36 85 -34 23c-26 -24 -47 -58 -55 -87zM157 45c26 13 56 38 87 66c12 10 10 -20 5 -25c-4 -5 -82 -82 -145 -91c-51 -7 -84 11 -97 48c-16 40 6 96 53 139c111 101 186 58 105 -36c-18 -20 -100 -84 -129 -97c7 -31 42 -43 121 -4z
M209 287c3 4 35 38 41 44c13 12 13 -24 13 -24c-9 -9 -45 -42 -48 -38c-5 4 -8 16 -6 18z" />
    <glyph glyph-name="egrave" unicode="&#xe8;" horiz-adv-x="227" 
d="M38 84c8 29 29 63 55 87c70 62 104 45 34 -23c-27 -26 -69 -53 -89 -64zM157 45c-79 -39 -114 -27 -121 4c29 13 111 77 129 97c81 94 6 137 -105 36c-47 -43 -69 -99 -53 -139c13 -37 46 -55 97 -48c63 9 141 86 145 91c5 5 7 35 -5 25c-31 -28 -61 -53 -87 -66z
M178 287c3 -2 0 -14 -5 -18c-4 -4 -40 29 -49 38c0 0 0 36 13 24c7 -6 38 -40 41 -44z" />
    <glyph glyph-name="ecircumflex" unicode="&#xea;" horiz-adv-x="227" 
d="M38 84c8 29 29 63 55 87c70 62 104 45 34 -23c-27 -26 -69 -53 -89 -64zM157 45c-79 -39 -114 -27 -121 4c29 13 111 77 129 97c81 94 6 137 -105 36c-47 -43 -69 -99 -53 -139c13 -37 46 -55 97 -48c63 9 141 86 145 91c5 5 7 35 -5 25c-31 -28 -61 -53 -87 -66z
M152 285c8 6 67 62 73 36c1 -5 7 -36 8 -40c1 -8 -22 -23 -24 -5c-2 8 -5 16 -7 22c-8 -6 -30 -21 -40 -29c-5 -4 -14 12 -10 16z" />
    <glyph glyph-name="edieresis" unicode="&#xeb;" horiz-adv-x="227" 
d="M38 84c8 29 29 63 55 87c70 62 104 45 34 -23c-27 -26 -69 -53 -89 -64zM157 45c-79 -39 -114 -27 -121 4c29 13 111 77 129 97c81 94 6 137 -105 36c-47 -43 -69 -99 -53 -139c13 -37 46 -55 97 -48c63 9 141 86 145 91c5 5 7 35 -5 25c-31 -28 -61 -53 -87 -66z
M160 307c21 -9 2 -43 -23 -34c-23 7 -10 49 23 34zM237 307c21 -9 2 -43 -23 -34c-23 7 -9 49 23 34z" />
    <glyph glyph-name="iacute" unicode="&#xed;" horiz-adv-x="168" 
d="M51 30c24 -2 59 15 134 81c11 10 9 -20 5 -25c-5 -5 -110 -114 -171 -71c-32 22 -19 76 23 135c34 50 53 75 60 80c8 6 25 -14 16 -27c-7 -11 -63 -84 -77 -118c-15 -34 -11 -53 10 -55zM144 287c3 4 35 38 41 44c13 12 13 -24 13 -24c-9 -9 -45 -42 -48 -38
c-5 4 -8 16 -6 18z" />
    <glyph glyph-name="igrave" unicode="&#xec;" horiz-adv-x="168" 
d="M51 30c-21 2 -25 21 -10 55c14 34 70 107 77 118c9 13 -8 33 -16 27c-7 -5 -26 -30 -60 -80c-42 -59 -55 -113 -23 -135c61 -43 166 66 171 71c4 5 6 35 -5 25c-75 -66 -110 -83 -134 -81zM143 287c3 -2 0 -14 -5 -18c-4 -4 -40 29 -49 38c0 0 0 36 13 24
c7 -6 38 -40 41 -44z" />
    <glyph glyph-name="icircumflex" unicode="&#xee;" horiz-adv-x="168" 
d="M51 30c-21 2 -25 21 -10 55c14 34 70 107 77 118c9 13 -8 33 -16 27c-7 -5 -26 -30 -60 -80c-42 -59 -55 -113 -23 -135c61 -43 166 66 171 71c4 5 6 35 -5 25c-75 -66 -110 -83 -134 -81zM112 285c8 6 67 62 73 36c1 -5 7 -36 8 -40c1 -8 -22 -23 -24 -5
c-2 8 -5 16 -7 22c-8 -6 -30 -21 -40 -29c-5 -4 -14 12 -10 16z" />
    <glyph glyph-name="idieresis" unicode="&#xef;" horiz-adv-x="168" 
d="M51 30c-21 2 -25 21 -10 55c14 34 70 107 77 118c9 13 -8 33 -16 27c-7 -5 -26 -30 -60 -80c-42 -59 -55 -113 -23 -135c61 -43 166 66 171 71c4 5 6 35 -5 25c-75 -66 -110 -83 -134 -81zM115 307c21 -9 2 -43 -23 -34c-23 7 -10 49 23 34zM192 307c21 -9 2 -43 -23 -34
c-23 7 -9 49 23 34z" />
    <glyph glyph-name="ntilde" unicode="&#xf1;" horiz-adv-x="279" 
d="M79 165c22 40 40 73 40 75c0 7 -25 15 -29 8c-54 -104 -91 -164 -114 -200c-9 -20 3 -45 16 -33c3 3 20 31 40 67c28 33 65 68 90 90c51 45 83 38 55 -6c-16 -27 -61 -76 -60 -120c0 -38 26 -45 49 -46c48 -2 131 81 135 86c5 5 7 35 -5 25c-75 -66 -108 -83 -130 -82
c-27 2 -27 34 10 80c42 53 64 106 36 123c-31 19 -103 -32 -133 -67zM263 303c7 -3 -6 -26 -16 -22c-46 16 -43 -16 -92 1c-7 2 -2 24 1 23c36 -13 62 18 107 -2z" />
    <glyph glyph-name="oacute" unicode="&#xf3;" horiz-adv-x="231" 
d="M121 197c2 -3 2 -6 0 -8c-119 -100 -89 -169 -53 -167c21 2 47 16 82 58c102 124 44 169 -29 117zM94 203c3 11 33 30 55 36c94 27 132 -65 2 -198c-108 -111 -197 -18 -118 97c19 27 44 49 60 61c0 1 0 3 1 4zM214 287c3 4 35 38 41 44c13 12 13 -24 13 -24
c-9 -9 -45 -42 -48 -38c-5 4 -8 16 -6 18z" />
    <glyph glyph-name="ograve" unicode="&#xf2;" horiz-adv-x="231" 
d="M121 197c2 -3 2 -6 0 -8c-119 -100 -89 -169 -53 -167c21 2 47 16 82 58c102 124 44 169 -29 117zM94 203c3 11 33 30 55 36c94 27 132 -65 2 -198c-108 -111 -197 -18 -118 97c19 27 44 49 60 61c0 1 0 3 1 4zM213 287c3 -2 0 -14 -5 -18c-4 -4 -40 29 -49 38
c0 0 0 36 13 24c7 -6 38 -40 41 -44z" />
    <glyph glyph-name="ocircumflex" unicode="&#xf4;" horiz-adv-x="231" 
d="M121 197c73 52 131 7 29 -117c-35 -42 -61 -56 -82 -58c-36 -2 -66 67 53 167c2 2 2 5 0 8zM94 203c-1 -1 -1 -3 -1 -4c-16 -12 -41 -34 -60 -61c-79 -115 10 -208 118 -97c130 133 92 225 -2 198c-22 -6 -52 -25 -55 -36zM177 285c8 6 67 62 73 36c1 -5 7 -36 8 -40
c1 -8 -22 -23 -24 -5c-2 8 -5 16 -7 22c-8 -6 -30 -21 -40 -29c-5 -4 -14 12 -10 16z" />
    <glyph glyph-name="odieresis" unicode="&#xf6;" horiz-adv-x="231" 
d="M121 197c73 52 131 7 29 -117c-35 -42 -61 -56 -82 -58c-36 -2 -66 67 53 167c2 2 2 5 0 8zM94 203c-1 -1 -1 -3 -1 -4c-16 -12 -41 -34 -60 -61c-79 -115 10 -208 118 -97c130 133 92 225 -2 198c-22 -6 -52 -25 -55 -36zM195 307c21 -9 2 -43 -23 -34
c-23 7 -10 49 23 34zM272 307c21 -9 2 -43 -23 -34c-23 7 -9 49 23 34z" />
    <glyph glyph-name="otilde" unicode="&#xf5;" horiz-adv-x="231" 
d="M121 197c73 52 131 7 29 -117c-35 -42 -61 -56 -82 -58c-36 -2 -66 67 53 167c2 2 2 5 0 8zM94 203c-1 -1 -1 -3 -1 -4c-16 -12 -41 -34 -60 -61c-79 -115 10 -208 118 -97c130 133 92 225 -2 198c-22 -6 -52 -25 -55 -36zM278 303c7 -3 -6 -26 -16 -22
c-46 16 -43 -16 -92 1c-7 2 -2 24 1 23c36 -13 62 18 107 -2z" />
    <glyph glyph-name="uacute" unicode="&#xfa;" horiz-adv-x="302" 
d="M189 0c-47 0 -70 50 -43 90c-75 -94 -147 -113 -141 -27c6 87 96 161 100 166c5 5 34 -2 22 -18c-11 -14 -65 -70 -81 -116c-17 -45 -9 -71 37 -36c45 34 105 110 142 167c5 9 38 3 26 -13s-55 -77 -73 -117c-31 -69 14 -72 41 -61c22 8 53 34 100 76c12 10 10 -20 5 -25
c-4 -5 -85 -86 -135 -86zM189 287c3 4 35 38 41 44c13 12 13 -24 13 -24c-9 -9 -45 -42 -48 -38c-5 4 -8 16 -6 18z" />
    <glyph glyph-name="ugrave" unicode="&#xf9;" horiz-adv-x="302" 
d="M189 0c-47 0 -70 50 -43 90c-75 -94 -147 -113 -141 -27c6 87 96 161 100 166c5 5 34 -2 22 -18c-11 -14 -65 -70 -81 -116c-17 -45 -9 -71 37 -36c45 34 105 110 142 167c5 9 38 3 26 -13s-55 -77 -73 -117c-31 -69 14 -72 41 -61c22 8 53 34 100 76c12 10 10 -20 5 -25
c-4 -5 -85 -86 -135 -86zM183 287c3 -2 0 -14 -5 -18c-4 -4 -40 29 -49 38c0 0 0 36 13 24c7 -6 38 -40 41 -44z" />
    <glyph glyph-name="ucircumflex" unicode="&#xfb;" horiz-adv-x="302" 
d="M189 0c-47 0 -70 50 -43 90c-75 -94 -147 -113 -141 -27c6 87 96 161 100 166c5 5 34 -2 22 -18c-11 -14 -65 -70 -81 -116c-17 -45 -9 -71 37 -36c45 34 105 110 142 167c5 9 38 3 26 -13s-55 -77 -73 -117c-31 -69 14 -72 41 -61c22 8 53 34 100 76c12 10 10 -20 5 -25
c-4 -5 -85 -86 -135 -86zM157 285c8 6 67 62 73 36c1 -5 7 -36 8 -40c1 -8 -22 -23 -24 -5c-2 8 -5 16 -7 22c-8 -6 -30 -21 -40 -29c-5 -4 -14 12 -10 16z" />
    <glyph glyph-name="udieresis" unicode="&#xfc;" horiz-adv-x="302" 
d="M189 0c-47 0 -70 50 -43 90c-75 -94 -147 -113 -141 -27c6 87 96 161 100 166c5 5 34 -2 22 -18c-11 -14 -65 -70 -81 -116c-17 -45 -9 -71 37 -36c45 34 105 110 142 167c5 9 38 3 26 -13s-55 -77 -73 -117c-31 -69 14 -72 41 -61c22 8 53 34 100 76c12 10 10 -20 5 -25
c-4 -5 -85 -86 -135 -86zM180 307c21 -9 2 -43 -23 -34c-23 7 -10 49 23 34zM257 307c21 -9 2 -43 -23 -34c-23 7 -9 49 23 34z" />
    <glyph glyph-name="sterling" unicode="&#xa3;" horiz-adv-x="631" 
d="M98 84c-41 1 -56 -19 -54 -37c3 -19 24 -39 62 -37c37 1 70 15 100 41c-41 18 -79 33 -108 33zM451 276c9 -1 14 -8 12 -15s-10 -13 -23 -14c-13 0 -48 0 -86 1c-18 -35 -35 -70 -52 -103c-17 -32 -35 -61 -55 -86c39 -18 80 -34 125 -39c10 -1 17 -2 20 -5
c4 -4 3 -8 0 -11c-6 -5 -21 -9 -33 -7c-40 5 -85 24 -129 44c-33 -35 -75 -56 -130 -56c-121 0 -114 131 5 123c40 -3 79 -20 119 -39c24 27 46 62 67 106c11 25 22 50 32 73c-44 1 -85 1 -91 1c-10 -1 -12 8 -10 14c1 7 7 14 15 14h98c9 19 18 38 27 55
c27 48 60 91 114 128c38 25 109 43 137 13c23 -24 -8 -77 -59 -109c-3 -2 -13 1 -18 5c-6 4 -9 12 1 20c35 21 53 44 54 57c1 17 -49 27 -102 -14c-52 -40 -88 -96 -120 -155c36 0 70 -1 82 -1z" />
    <glyph glyph-name="germandbls" unicode="&#xdf;" horiz-adv-x="326" 
d="M276 393c134 9 183 128 120 134c-154 14 -333 -386 -412 -571c-4 -10 -40 -9 -36 1c32 95 131 312 244 458c38 50 191 210 264 128c10 -11 14 -26 10 -46c-8 -51 -81 -115 -148 -123c114 -83 -52 -434 -262 -385c-5 2 -9 30 3 27c215 -46 356 356 192 345
c-10 0 -5 13 1 20c5 5 14 11 24 12z" />
    <glyph glyph-name="acute" unicode="&#xb4;" horiz-adv-x="229" 
d="M89 187c3 4 34 38 41 43c13 12 13 -23 13 -23c-9 -9 -45 -42 -49 -38c-4 3 -7 16 -5 18z" />
    <glyph glyph-name="Oslash" unicode="&#xd8;" horiz-adv-x="447" 
d="M79 52c91 112 276 339 384 474c-43 16 -108 -2 -171 -59c-55 -49 -98 -111 -113 -142c-4 -10 -21 4 -14 21c8 21 32 64 70 106c-68 -48 -189 -176 -189 -298c0 -42 12 -78 33 -102zM490 509c-108 -135 -295 -362 -391 -476c16 -10 34 -16 55 -16c107 0 258 161 327 301
c46 94 41 159 9 191zM550 584c-10 -12 -22 -28 -37 -46c24 -21 38 -54 38 -101c0 -21 -6 -47 -17 -75c-54 -148 -235 -375 -377 -375c-30 0 -56 9 -78 23c-14 -17 -25 -30 -32 -38c-8 -9 -31 2 -17 19c5 7 15 19 28 36c-30 29 -48 71 -48 113c-1 173 198 362 229 358
c10 -2 18 -11 21 -20c21 20 44 38 69 52c58 32 115 42 157 25c14 17 26 33 35 45c8 11 38 -4 29 -16z" />
    <glyph glyph-name="questiondown" unicode="&#xbf;" horiz-adv-x="324" 
d="M317 605c-13 3 -21 14 -20 27c1 16 18 27 33 23c12 -3 20 -11 21 -23c1 -17 -17 -31 -34 -27zM273 69c12 12 38 -7 24 -23c-156 -178 -297 -63 -266 60c38 151 251 241 282 451c2 13 22 8 21 -5c-28 -238 -249 -310 -270 -450c-15 -103 86 -160 209 -33z" />
    <glyph glyph-name="exclamdown" unicode="&#xa1;" horiz-adv-x="180" 
d="M209 567c-37 -134 -154 -483 -186 -578c-5 -17 32 -55 44 -20c12 37 141 510 165 593c5 15 -19 26 -23 5zM227 625c-22 13 -1 52 29 43c14 -4 15 -19 10 -31c-6 -15 -25 -20 -39 -12z" />
    <glyph glyph-name="Agrave" unicode="&#xc0;" horiz-adv-x="778" 
d="M515 268c113 125 241 265 298 265c11 0 24 -28 -38 -109c-31 -40 -75 -98 -114 -160c-42 2 -95 4 -146 4zM828 558c-57 8 -136 -37 -348 -287l-3 -4c-24 -1 -47 -2 -65 -5c-22 -2 -40 -42 -25 -39c22 4 41 7 60 10c-281 -315 -374 -197 -410 -110c-4 11 -36 1 -25 -29
c14 -35 63 -104 141 -100c45 2 116 20 218 119c32 31 73 76 118 126c61 7 109 8 159 5c-39 -62 -72 -126 -82 -179c-11 -62 49 -141 170 -5c5 5 -5 27 -18 11c-24 -31 -81 -63 -108 -55c-26 7 -13 89 38 169c11 17 24 36 38 57l17 -1c24 -2 37 14 27 17c-4 1 -15 2 -30 3
c48 70 104 147 128 184c34 51 34 109 0 113zM851 610c3 -3 0 -15 -5 -19c-4 -3 -40 29 -49 39c0 0 0 35 13 23c7 -5 38 -39 41 -43z" />
    <glyph glyph-name="Atilde" unicode="&#xc3;" horiz-adv-x="778" 
d="M515 268c113 125 241 265 298 265c11 0 24 -28 -38 -109c-31 -40 -75 -98 -114 -160c-42 2 -95 4 -146 4zM828 558c-57 8 -136 -37 -348 -287l-3 -4c-24 -1 -47 -2 -65 -5c-22 -2 -40 -42 -25 -39c22 4 41 7 60 10c-281 -315 -374 -197 -410 -110c-4 11 -36 1 -25 -29
c14 -35 63 -104 141 -100c45 2 116 20 218 119c32 31 73 76 118 126c61 7 109 8 159 5c-39 -62 -72 -126 -82 -179c-11 -62 49 -141 170 -5c5 5 -5 27 -18 11c-24 -31 -81 -63 -108 -55c-26 7 -13 89 38 169c11 17 24 36 38 57l17 -1c24 -2 37 14 27 17c-4 1 -15 2 -30 3
c48 70 104 147 128 184c34 51 34 109 0 113zM904 615c7 -3 -5 -26 -16 -22c-46 16 -43 -16 -91 1c-8 2 -3 23 0 22c36 -12 62 18 107 -1z" />
    <glyph glyph-name="Otilde" unicode="&#xd5;" horiz-adv-x="447" 
d="M235 452c-38 -42 -62 -85 -70 -106c-7 -17 10 -31 14 -21c15 31 58 93 113 142c142 127 291 62 189 -149c-69 -140 -220 -301 -327 -301c-63 0 -108 57 -108 137c0 122 121 250 189 298zM260 478c-3 9 -11 18 -21 20c-31 4 -230 -185 -229 -358c0 -77 59 -153 147 -153
c142 0 323 227 377 375c11 28 17 54 17 75c0 131 -111 156 -222 93c-25 -14 -48 -32 -69 -52zM552 628c7 -3 -6 -26 -16 -22c-46 16 -43 -16 -92 1c-7 2 -2 24 1 23c36 -13 62 18 107 -2z" />
    <glyph glyph-name="divide" unicode="&#xf7;" horiz-adv-x="274" 
d="M243 153c10 -3 8 -25 -5 -23c-16 1 -143 -5 -152 -5s-14 19 -11 20c3 0 37 7 67 9c17 1 92 2 101 -1zM191 222c20 -10 -3 -52 -27 -44c-12 4 -12 20 -7 31c6 13 21 18 34 13zM163 98c-13 6 -28 0 -34 -12c-4 -11 -1 -25 10 -29c25 -8 45 32 24 41z" />
    <glyph glyph-name="ydieresis" unicode="&#xff;" horiz-adv-x="249" 
d="M122 -2c-60 -46 -126 -99 -193 -164c-65 -63 -89 -133 -61 -158c28 -26 83 0 132 52c45 48 96 151 148 257c48 37 94 71 124 101c4 4 6 35 -6 25c-26 -24 -57 -48 -92 -74c30 61 61 119 91 164c6 8 -17 24 -23 17c-6 -5 -88 -119 -143 -165c-35 -30 -63 -29 -60 3
c8 85 89 145 93 148c4 4 -16 20 -33 10s-90 -81 -93 -159c-3 -82 64 -84 148 14c-1 -4 -15 -34 -32 -71zM-14 -152c31 33 71 66 112 99c-16 -34 -31 -66 -42 -83c-89 -150 -149 -187 -166 -173c-13 10 -3 54 96 157zM180 297c21 -9 2 -43 -23 -34c-23 7 -10 49 23 34z
M257 297c21 -9 2 -43 -23 -34c-23 7 -9 49 23 34z" />
    <glyph glyph-name="Ydieresis" unicode="&#x178;" horiz-adv-x="387" 
d="M139 -32c-84 -104 -187 -213 -259 -257c-114 -71 -136 32 19 134c78 52 162 91 240 123zM191 553c-53 -20 -114 -70 -128 -84c-14 -13 -11 -50 -1 -40c15 14 62 60 134 86c42 16 28 -21 -3 -59c-49 -60 -115 -137 -158 -230c-76 -166 75 -287 225 -92
c-20 -34 -51 -77 -87 -123c-176 -55 -393 -145 -423 -283c-10 -44 25 -96 105 -66c103 39 227 176 341 327c62 22 118 39 163 52c14 4 5 23 0 22c-34 -9 -82 -22 -136 -38c149 206 273 427 294 463c9 15 -14 37 -20 29c0 0 -37 -55 -105 -155c-66 -97 -133 -201 -207 -260
c-123 -99 -156 27 -121 100c49 101 137 195 183 271c38 63 3 102 -56 80zM369 594c21 -9 2 -43 -23 -35c-23 8 -10 50 23 35zM446 594c21 -9 2 -43 -23 -35c-23 8 -9 50 23 35z" />
    <glyph glyph-name="Euro" unicode="&#x20ac;" horiz-adv-x="577" 
d="M133 145c-1 -44 16 -109 86 -123c59 -11 134 31 171 68c7 7 16 10 22 8c8 -2 10 -9 3 -16c-126 -141 -317 -109 -317 57c0 16 3 32 6 48c-49 0 -90 0 -94 2c-7 2 -11 10 -11 16c0 7 4 13 14 12c6 -1 49 -1 100 -1c3 8 7 17 11 26c-48 0 -88 1 -93 1c-10 -1 -12 8 -10 14
c1 6 7 14 15 14h103c70 117 215 215 324 220c57 2 102 -8 102 -39c0 -54 -82 -92 -112 -93c-19 -1 -21 17 -8 22c39 13 90 39 86 68c-1 9 -18 20 -55 19c-111 -3 -232 -97 -297 -197c55 0 108 -1 122 -2c9 0 14 -7 12 -14s-10 -13 -23 -14c-15 -1 -71 0 -128 1
c-4 -9 -8 -18 -12 -26h9c69 0 136 1 141 0c8 -1 10 -8 8 -13c-2 -6 -8 -12 -17 -14c-2 0 -78 -1 -151 -2c-4 -14 -6 -29 -7 -42z" />
    <glyph glyph-name="Acircumflex" unicode="&#xc2;" horiz-adv-x="778" 
d="M515 268c113 125 241 265 298 265c11 0 24 -28 -38 -109c-31 -40 -75 -98 -114 -160c-42 2 -95 4 -146 4zM828 558c-57 8 -136 -37 -348 -287l-3 -4c-24 -1 -47 -2 -65 -5c-22 -2 -40 -42 -25 -39c22 4 41 7 60 10c-281 -315 -374 -197 -410 -110c-4 11 -36 1 -25 -29
c14 -35 63 -104 141 -100c45 2 116 20 218 119c32 31 73 76 118 126c61 7 109 8 159 5c-39 -62 -72 -126 -82 -179c-11 -62 49 -141 170 -5c5 5 -5 27 -18 11c-24 -31 -81 -63 -108 -55c-26 7 -13 89 38 169c11 17 24 36 38 57l17 -1c24 -2 37 14 27 17c-4 1 -15 2 -30 3
c48 70 104 147 128 184c34 51 34 109 0 113zM819 609c7 7 67 62 72 37c1 -6 8 -37 8 -40c1 -8 -21 -24 -24 -6c-1 9 -4 16 -6 23c-8 -7 -30 -22 -40 -30c-6 -4 -15 12 -10 16z" />
    <glyph glyph-name="Ecircumflex" unicode="&#xca;" horiz-adv-x="378" 
d="M233 342c26 9 53 14 76 14c93 0 101 -61 10 -61c-45 0 -74 19 -86 47zM344 132c-27 -46 -94 -110 -177 -110c-82 0 -116 47 -114 122c3 78 69 150 149 186c18 -34 58 -57 112 -60c139 -9 143 115 0 112c-26 -1 -55 -6 -87 -15c-4 42 22 96 81 136c137 94 253 85 263 52
c12 -36 -60 -69 -104 -84c-12 -4 -13 -22 8 -21c35 2 141 47 130 108c-11 68 -176 75 -310 -24c-84 -63 -112 -129 -102 -180c-87 -35 -173 -101 -178 -215c-4 -101 78 -150 137 -150c117 0 178 73 210 126c7 11 -10 31 -18 17zM550 639c8 6 67 62 73 36c1 -5 7 -36 8 -40
c1 -8 -22 -23 -25 -5c-1 8 -4 16 -6 22c-8 -6 -30 -22 -40 -29c-6 -5 -15 12 -10 16z" />
    <glyph glyph-name="Aacute" unicode="&#xc1;" horiz-adv-x="778" 
d="M515 268c51 0 104 -2 146 -4c39 62 83 120 114 160c62 81 49 109 38 109c-57 0 -185 -140 -298 -265zM828 558c34 -4 34 -62 0 -113c-24 -37 -80 -114 -128 -184c15 -1 26 -2 30 -3c10 -3 -3 -19 -27 -17l-17 1c-14 -21 -27 -40 -38 -57c-51 -80 -64 -162 -38 -169
c27 -8 84 24 108 55c13 16 23 -6 18 -11c-121 -136 -181 -57 -170 5c10 53 43 117 82 179c-50 3 -98 2 -159 -5c-45 -50 -86 -95 -118 -126c-102 -99 -173 -117 -218 -119c-78 -4 -127 65 -141 100c-11 30 21 40 25 29c36 -87 129 -205 410 110c-19 -3 -38 -6 -60 -10
c-15 -3 3 37 25 39c18 3 41 4 65 5l3 4c212 250 291 295 348 287zM862 610c3 4 35 38 41 43c13 12 13 -23 13 -23c-9 -10 -45 -42 -48 -39c-5 4 -8 16 -6 19z" />
    <glyph glyph-name="Edieresis" unicode="&#xcb;" horiz-adv-x="378" 
d="M233 342c26 9 53 14 76 14c93 0 101 -61 10 -61c-45 0 -74 19 -86 47zM344 132c-27 -46 -94 -110 -177 -110c-82 0 -116 47 -114 122c3 78 69 150 149 186c18 -34 58 -57 112 -60c139 -9 143 115 0 112c-26 -1 -55 -6 -87 -15c-4 42 22 96 81 136c137 94 253 85 263 52
c12 -36 -60 -69 -104 -84c-12 -4 -13 -22 8 -21c35 2 141 47 130 108c-11 68 -176 75 -310 -24c-84 -63 -112 -129 -102 -180c-87 -35 -173 -101 -178 -215c-4 -101 78 -150 137 -150c117 0 178 73 210 126c7 11 -10 31 -18 17zM576 657c21 -9 2 -43 -23 -35
c-23 8 -9 50 23 35zM654 657c21 -9 2 -43 -23 -35c-23 8 -10 50 23 35z" />
    <glyph glyph-name="Egrave" unicode="&#xc8;" horiz-adv-x="378" 
d="M233 342c26 9 53 14 76 14c93 0 101 -61 10 -61c-45 0 -74 19 -86 47zM344 132c-27 -46 -94 -110 -177 -110c-82 0 -116 47 -114 122c3 78 69 150 149 186c18 -34 58 -57 112 -60c139 -9 143 115 0 112c-26 -1 -55 -6 -87 -15c-4 42 22 96 81 136c137 94 253 85 263 52
c12 -36 -60 -69 -104 -84c-12 -4 -13 -22 8 -21c35 2 141 47 130 108c-11 68 -176 75 -310 -24c-84 -63 -112 -129 -102 -180c-87 -35 -173 -101 -178 -215c-4 -101 78 -150 137 -150c117 0 178 73 210 126c7 11 -10 31 -18 17zM578 636c2 -2 -1 -14 -5 -18s-40 29 -49 38
c0 0 0 36 13 24c7 -5 38 -40 41 -44z" />
    <glyph glyph-name="Iacute" unicode="&#xcd;" horiz-adv-x="341" 
d="M646 592c-7 -4 -50 -23 -101 -47c-29 -34 -74 -101 -149 -224c-96 -160 -169 -333 -269 -333s-125 140 -106 195c7 20 35 21 34 15c-7 -30 -18 -165 67 -177c82 -11 199 252 267 353c41 60 86 121 107 149c-77 -35 -156 -71 -157 -71c-59 -30 -122 -94 -59 -204
c6 -11 -24 -11 -30 1c-5 11 -28 46 -28 107s58 108 152 143c148 55 199 87 244 108c12 6 39 -9 28 -15zM509 626c3 4 34 39 41 44c13 12 13 -24 13 -24c-9 -9 -45 -42 -49 -38s-7 16 -5 18z" />
    <glyph glyph-name="Icircumflex" unicode="&#xce;" horiz-adv-x="341" 
d="M646 592c11 6 -16 21 -28 15c-45 -21 -96 -53 -244 -108c-94 -35 -152 -82 -152 -143s23 -96 28 -107c6 -12 36 -12 30 -1c-63 110 0 174 59 204c1 0 80 36 157 71c-21 -28 -66 -89 -107 -149c-68 -101 -185 -364 -267 -353c-85 12 -74 147 -67 177c1 6 -27 5 -34 -15
c-19 -55 6 -195 106 -195s173 173 269 333c75 123 120 190 149 224c51 24 94 43 101 47zM505 629c8 6 67 62 73 36c1 -5 7 -36 8 -40c1 -8 -22 -23 -25 -5c-1 8 -4 16 -6 22c-8 -6 -30 -22 -40 -29c-6 -5 -15 12 -10 16z" />
    <glyph glyph-name="Idieresis" unicode="&#xcf;" horiz-adv-x="341" 
d="M646 592c11 6 -16 21 -28 15c-45 -21 -96 -53 -244 -108c-94 -35 -152 -82 -152 -143s23 -96 28 -107c6 -12 36 -12 30 -1c-63 110 0 174 59 204c1 0 80 36 157 71c-21 -28 -66 -89 -107 -149c-68 -101 -185 -364 -267 -353c-85 12 -74 147 -67 177c1 6 -27 5 -34 -15
c-19 -55 6 -195 106 -195s173 173 269 333c75 123 120 190 149 224c51 24 94 43 101 47zM509 662c21 -9 2 -43 -23 -34c-23 7 -10 49 23 34zM586 662c21 -9 2 -43 -23 -34c-23 7 -9 49 23 34z" />
    <glyph glyph-name="Igrave" unicode="&#xcc;" horiz-adv-x="341" 
d="M646 592c11 6 -16 21 -28 15c-45 -21 -96 -53 -244 -108c-94 -35 -152 -82 -152 -143s23 -96 28 -107c6 -12 36 -12 30 -1c-63 110 0 174 59 204c1 0 80 36 157 71c-21 -28 -66 -89 -107 -149c-68 -101 -185 -364 -267 -353c-85 12 -74 147 -67 177c1 6 -27 5 -34 -15
c-19 -55 6 -195 106 -195s173 173 269 333c75 123 120 190 149 224c51 24 94 43 101 47zM523 626c2 -2 -1 -14 -5 -18s-40 29 -49 38c0 0 0 36 13 24c7 -5 38 -40 41 -44z" />
    <glyph glyph-name="Oacute" unicode="&#xd3;" horiz-adv-x="447" 
d="M235 452c-68 -48 -189 -176 -189 -298c0 -80 45 -137 108 -137c107 0 258 161 327 301c102 211 -47 276 -189 149c-55 -49 -98 -111 -113 -142c-4 -10 -21 4 -14 21c8 21 32 64 70 106zM260 478c21 20 44 38 69 52c111 63 222 38 222 -93c0 -21 -6 -47 -17 -75
c-54 -148 -235 -375 -377 -375c-88 0 -147 76 -147 153c-1 173 198 362 229 358c10 -2 18 -11 21 -20zM480 615c3 4 34 38 41 43c13 12 13 -23 13 -23c-9 -10 -45 -42 -49 -39c-4 4 -7 16 -5 19z" />
    <glyph glyph-name="Ocircumflex" unicode="&#xd4;" horiz-adv-x="447" 
d="M235 452c-38 -42 -62 -85 -70 -106c-7 -17 10 -31 14 -21c15 31 58 93 113 142c142 127 291 62 189 -149c-69 -140 -220 -301 -327 -301c-63 0 -108 57 -108 137c0 122 121 250 189 298zM260 478c-3 9 -11 18 -21 20c-31 4 -230 -185 -229 -358c0 -77 59 -153 147 -153
c142 0 323 227 377 375c11 28 17 54 17 75c0 131 -111 156 -222 93c-25 -14 -48 -32 -69 -52zM475 619c8 6 67 62 73 36c1 -5 7 -36 8 -40c1 -8 -22 -23 -25 -5c-1 8 -4 16 -6 22c-8 -6 -30 -22 -40 -29c-6 -5 -15 12 -10 16z" />
    <glyph glyph-name="Ograve" unicode="&#xd2;" horiz-adv-x="447" 
d="M235 452c-38 -42 -62 -85 -70 -106c-7 -17 10 -31 14 -21c15 31 58 93 113 142c142 127 291 62 189 -149c-69 -140 -220 -301 -327 -301c-63 0 -108 57 -108 137c0 122 121 250 189 298zM260 478c-3 9 -11 18 -21 20c-31 4 -230 -185 -229 -358c0 -77 59 -153 147 -153
c142 0 323 227 377 375c11 28 17 54 17 75c0 131 -111 156 -222 93c-25 -14 -48 -32 -69 -52zM494 615c2 -3 -1 -15 -5 -19c-4 -3 -40 29 -49 39c0 0 0 35 13 23c7 -5 38 -39 41 -43z" />
    <glyph glyph-name="Uacute" unicode="&#xda;" horiz-adv-x="456" 
d="M408 -8c5 -7 9 -31 -14 -28c-38 5 -56 55 -55 96c2 40 12 92 28 132c-26 -31 -58 -66 -95 -101c-211 -197 -365 -89 -177 165c64 86 129 155 171 200c60 65 34 72 -1 59c0 0 -27 32 25 40c31 4 90 -12 38 -77c-38 -49 -139 -148 -207 -239c-147 -195 -46 -293 126 -125
c152 148 343 398 360 418c5 6 43 -4 31 -19c-11 -15 -207 -236 -241 -325c-17 -46 -50 -178 11 -196zM478 580c3 3 35 38 41 43c13 12 13 -24 13 -24c-9 -9 -45 -41 -48 -38c-5 4 -8 16 -6 19z" />
    <glyph glyph-name="Ucircumflex" unicode="&#xdb;" horiz-adv-x="456" 
d="M408 -8c-61 18 -28 150 -11 196c34 89 230 310 241 325c12 15 -26 25 -31 19c-17 -20 -208 -270 -360 -418c-172 -168 -273 -70 -126 125c68 91 169 190 207 239c52 65 -7 81 -38 77c-52 -8 -25 -40 -25 -40c35 13 61 6 1 -59c-42 -45 -107 -114 -171 -200
c-188 -254 -34 -362 177 -165c37 35 69 70 95 101c-16 -40 -26 -92 -28 -132c-1 -41 17 -91 55 -96c23 -3 19 21 14 28zM451 578c8 7 67 62 73 36c1 -5 7 -36 8 -39c1 -8 -22 -24 -25 -6c-1 8 -4 16 -6 22c-8 -6 -30 -21 -40 -29c-6 -4 -15 12 -10 16z" />
    <glyph glyph-name="Ugrave" unicode="&#xd9;" horiz-adv-x="456" 
d="M408 -8c-61 18 -28 150 -11 196c34 89 230 310 241 325c12 15 -26 25 -31 19c-17 -20 -208 -270 -360 -418c-172 -168 -273 -70 -126 125c68 91 169 190 207 239c52 65 -7 81 -38 77c-52 -8 -25 -40 -25 -40c35 13 61 6 1 -59c-42 -45 -107 -114 -171 -200
c-188 -254 -34 -362 177 -165c37 35 69 70 95 101c-16 -40 -26 -92 -28 -132c-1 -41 17 -91 55 -96c23 -3 19 21 14 28zM472 580c3 -3 0 -15 -5 -19c-4 -3 -40 29 -49 38c0 0 0 36 13 24c7 -5 38 -40 41 -43z" />
    <glyph glyph-name="quoteleft" unicode="&#x2018;" horiz-adv-x="71" 
d="M48 363c-1 -5 -7 -8 -12 -9s-11 1 -11 7c0 10 2 50 4 58s21 4 22 -2c0 0 -2 -46 -3 -54z" />
    <glyph glyph-name="quoteright" unicode="&#x2019;" horiz-adv-x="0" 
d="M43 289c1 -5 -3 -10 -8 -12c-4 -3 -12 -4 -12 2c-2 17 -7 37 -22 63c-6 9 21 14 24 7c14 -23 18 -50 18 -60z" />
    <glyph glyph-name="Scaron" unicode="&#x160;" horiz-adv-x="458" 
d="M83 273c9 12 -19 20 -31 6c-92 -110 -7 -303 155 -291c95 8 156 68 191 113c54 72 50 153 -25 190c-31 15 -74 27 -108 44c-49 23 -76 63 -18 109c70 56 162 87 229 94c32 3 60 1 63 -12c5 -19 -49 -79 -98 -89c-3 -1 -14 -26 12 -21c21 4 62 27 86 56
c99 113 -59 108 -139 85c-68 -20 -221 -80 -221 -167c0 -112 208 -87 216 -192c4 -64 -88 -175 -194 -175c-144 0 -191 156 -118 250zM594 637c-8 -6 -67 -62 -73 -36c-1 5 -7 36 -8 40c-1 8 22 23 25 5c1 -8 4 -16 6 -22c8 6 30 21 40 29c6 4 15 -12 10 -16z" />
    <glyph glyph-name="scaron" unicode="&#x161;" horiz-adv-x="243" 
d="M92 7c-5 -1 -10 -2 -16 -1c-38 3 -60 57 -41 85c2 3 11 -63 57 -84zM122 211c-3 7 -4 15 -1 23c10 39 35 42 37 31c2 -8 -14 -30 -36 -54zM38 129c-9 11 -37 5 -38 -47c-2 -55 33 -109 88 -102c18 3 33 10 46 20c55 8 127 81 131 86c5 5 7 35 -5 25
c-46 -41 -76 -63 -98 -74c10 20 14 44 13 69c-1 38 -25 61 -41 83c20 22 37 43 46 59c16 30 15 49 -8 53s-65 -27 -72 -64c-3 -15 -1 -29 5 -43c-23 -24 -48 -48 -67 -65zM127 30c-33 5 -63 50 -78 78c19 17 44 40 67 63c13 -25 29 -51 29 -84c0 -22 -7 -43 -18 -57z
M252 370c-8 -6 -67 -62 -72 -36c-2 5 -8 36 -8 40c-2 8 21 23 24 5c1 -8 4 -16 6 -22c8 6 30 22 40 29c6 5 15 -12 10 -16z" />
    </font>
</defs>
</svg>
